<svg width="31" height="31" viewBox="0 0 31 31" fill="none" xmlns="http://www.w3.org/2000/svg">
<g clip-path="url(#clip0_6511_7407)">
<g clip-path="url(#clip1_6511_7407)">
<g clip-path="url(#clip2_6511_7407)">
<path d="M4.69141 11.675L4.31641 9.61249V7.73749C4.37891 7.29998 4.54141 6.42499 4.69141 6.42499C4.84141 6.42499 5.81641 6.04999 6.56641 5.86249L8.06641 5.67499C8.44141 5.67499 8.62891 5.67499 10.5039 5.29999C10.651 5.27059 11.6289 5.11249 12.0039 5.11249L11.4414 4.36249L12.1914 5.11249L12.9414 5.86249L13.1289 6.42499C12.8789 6.4875 12.3039 6.61249 12.0039 6.61249H10.5039L9.75391 6.98749V7.54999C9.75391 7.69999 9.62892 8.98748 9.56641 9.61249L9.37891 11.4875L8.62891 11.675H5.06641H4.69141Z" fill="#FDC040"/>
<path d="M18.5664 6.61246L19.3164 5.67496L21.7539 3.98746L24.5664 2.86246C25.4414 2.61246 27.4164 2.22496 28.3164 2.67496C29.4414 3.23746 29.6289 3.42496 30.5664 5.11246C30.5039 6.42496 30.2664 9.16246 29.8164 9.61246L28.8789 11.3L28.3164 11.675H25.5039H21.3789H20.0664V10.3625C20.0664 10.175 19.8789 8.86246 19.8789 8.67496V7.54996L19.6914 6.79996L19.3164 6.61246H18.5664Z" fill="#FDC040"/>
<path d="M22.4788 5.28218C22.2179 5.54307 22.0742 5.88991 22.0742 6.25883C22.0742 6.62772 22.2179 6.97456 22.4787 7.23544L25.6714 10.4282C25.9323 10.689 26.2791 10.8326 26.648 10.8326C27.0169 10.8326 27.3637 10.689 27.6245 10.4282C27.8854 10.1673 28.0291 9.82043 28.0291 9.45154C28.0291 9.08262 27.8854 8.73578 27.6246 8.47489L24.4319 5.28214C23.8934 4.74368 23.0171 4.74383 22.4788 5.28218ZM27.0031 9.09646C27.0979 9.19126 27.1502 9.31741 27.1502 9.45154C27.1502 9.58564 27.0979 9.71176 27.0031 9.80663C26.9083 9.90147 26.7821 9.95371 26.648 9.95371C26.5138 9.95371 26.3877 9.90147 26.2929 9.80663L23.1001 6.61384C23.0053 6.51904 22.9531 6.39289 22.9531 6.25876C22.9531 6.12462 23.0053 5.99854 23.1002 5.90367C23.1981 5.80576 23.3266 5.75682 23.4553 5.75682C23.5839 5.75682 23.7126 5.80576 23.8104 5.90367L27.0031 9.09646Z" fill="#3BB77E"/>
<path d="M30.8346 13.3728C30.6508 12.4649 29.9954 11.7368 29.157 11.4277C31.2361 7.95909 31.5243 4.71087 29.8611 3.04752C29.1314 2.31795 28.0747 1.9444 26.8029 1.96784C26.5602 1.97229 26.3671 2.17263 26.3715 2.41527C26.3759 2.65523 26.5718 2.84672 26.8108 2.84672C26.8135 2.84672 26.8163 2.84672 26.819 2.84666C27.8595 2.82738 28.6749 3.1043 29.2396 3.66899C30.1128 4.54224 30.1364 5.86902 30.0024 6.82831C29.813 8.18491 29.1992 9.7148 28.2257 11.2658C25.691 11.2175 23.1454 11.1841 20.5957 11.1658C20.5791 9.66905 20.4865 8.15405 20.3182 6.65532C20.2952 6.45072 20.1332 6.28947 19.9284 6.26742C19.7974 6.25336 19.6661 6.24084 19.535 6.22782C21.3902 4.65901 23.3736 3.55397 25.1993 3.08292C25.4344 3.02227 25.5757 2.78261 25.515 2.54759C25.4544 2.31256 25.2146 2.17116 24.9797 2.23187C24.2801 2.41241 23.5605 2.67866 22.8352 3.02186C22.9764 2.4076 23.0438 1.67123 22.7741 1.12177C22.6117 0.790643 22.3427 0.564874 21.9964 0.468837C21.4833 0.326682 20.6862 0.401333 19.8006 1.56476C19.7578 1.62107 19.7164 1.67779 19.6766 1.73421C19.6718 1.71752 19.6669 1.70087 19.6619 1.68417C19.4878 1.10513 19.0329 0.133667 17.9401 0.133667C17.5605 0.133667 17.2296 0.284962 16.983 0.571144C16.661 0.944809 16.5201 1.5252 16.4696 2.10366C16.085 1.59786 15.6191 1.19132 15.1152 1.19132C14.7878 1.19132 14.4892 1.35809 14.2746 1.66091C13.7091 2.45864 13.7009 4.18745 14.2262 5.99877C14.0946 6.00042 13.9632 6.00339 13.8317 6.00616C12.9707 5.00146 11.9299 4.31004 11.4746 4.03336V3.07002C11.681 3.03387 11.8378 2.85428 11.8378 2.63759V1.39682C11.8378 0.728123 11.2938 0.184118 10.6251 0.184118H7.89233C7.22363 0.184118 6.67962 0.728123 6.67962 1.39682V2.63759C6.67962 2.85428 6.83659 3.03387 7.04292 3.07002L7.04258 4.03317C6.44922 4.39355 4.86421 5.4557 3.97712 6.998C3.79618 7.31127 3.71239 7.67232 3.73506 8.04294C3.7776 8.71839 3.88325 10.0315 4.11289 11.2577C3.93294 11.261 3.75282 11.264 3.57299 11.2675C2.35231 11.2905 1.29044 12.176 1.0482 13.3726C0.905817 14.0737 0.905817 14.7847 1.04815 15.4854C1.22593 16.365 1.84898 17.0909 2.6719 17.4113C2.72018 18.3059 2.80286 19.5781 2.93822 21.024C2.57545 22.0515 2.22012 23.0793 1.87546 24.1051C1.57891 24.9887 1.97595 25.9692 2.79958 26.3863C3.11295 26.5445 3.44244 26.6672 3.77965 26.7526C4.09484 27.6463 4.65736 28.4174 5.41958 28.9937C6.26123 29.63 7.26417 29.9664 8.31994 29.9664H23.5629C24.6187 29.9664 25.6216 29.63 26.4633 28.9937C27.2256 28.4173 27.7881 27.6462 28.1033 26.7523C28.4421 26.6663 28.7715 26.5434 29.0835 26.3857C29.9073 25.9694 30.3044 24.9887 30.0074 24.1045C29.6624 23.0781 29.3072 22.0503 28.9447 21.0236C29.08 19.5778 29.1627 18.3056 29.211 17.4111C30.0348 17.0898 30.6571 16.3644 30.8346 15.4859C30.977 14.7846 30.977 14.0736 30.8346 13.3728ZM19.4826 7.10506C19.6233 8.45454 19.7015 9.81511 19.7168 11.1606C16.4571 11.1417 13.1921 11.1471 9.93567 11.1772C9.95063 9.82644 10.0289 8.46027 10.17 7.10499C13.2615 6.79655 16.391 6.79655 19.4826 7.10506ZM14.9916 2.16917C15.0236 2.12405 15.071 2.07026 15.1152 2.07026C15.4316 2.07026 16.0952 2.97299 16.5672 4.04517C16.6449 4.23515 16.8451 4.34682 17.049 4.3115C17.2596 4.27494 17.4134 4.09224 17.4134 3.87849C17.4134 3.85175 17.4108 3.82497 17.4059 3.79861C17.1862 2.31361 17.4304 1.39829 17.6489 1.14486C17.7288 1.0521 17.8159 1.01255 17.9401 1.01255C18.9533 1.01255 18.9872 3.02837 18.9872 3.04817C18.9872 3.25589 19.1327 3.43508 19.3359 3.47797C19.5395 3.52092 19.7448 3.41551 19.8288 3.22548C20.143 2.51477 21.0279 1.11269 21.7614 1.3159C21.8659 1.34484 21.9327 1.40262 21.9849 1.50903C22.1718 1.89002 22.0718 2.73269 21.7444 3.5937C20.5821 4.26185 19.4229 5.11655 18.3237 6.12365C17.266 6.0461 16.2053 6.0038 15.1442 5.99679C14.5319 4.07705 14.6753 2.61544 14.9916 2.16917ZM10.5957 3.84601H7.92162L7.92192 3.07706H10.5958L10.5957 3.84601ZM7.89233 1.063H10.6251C10.8092 1.063 10.9589 1.21271 10.9589 1.39676V2.19794H7.55858V1.39682C7.55858 1.21277 7.70828 1.063 7.89233 1.063ZM4.97941 11.1099C4.75658 9.92652 4.65373 8.64579 4.6123 7.98852C4.60029 7.7915 4.64383 7.601 4.73862 7.4369C5.57686 5.9795 7.19689 4.9622 7.59946 4.7249H10.9178C11.1746 4.87606 11.9283 5.34537 12.6581 6.04475C11.6777 6.08919 10.6991 6.16276 9.72439 6.2675C9.51961 6.28947 9.35757 6.45072 9.33462 6.6554C9.16557 8.16106 9.07291 9.68289 9.05693 11.1861C7.70757 11.2004 6.35982 11.2186 5.01492 11.2414C5.00048 11.1985 4.98796 11.1548 4.97941 11.1099ZM3.56209 17.5904C3.56578 17.5905 3.56941 17.5908 3.5731 17.5909L3.58717 17.5912C3.78422 17.5948 3.98128 17.598 4.1784 17.6016C4.00226 18.075 3.82735 18.549 3.65449 19.0237C3.61576 18.4883 3.58552 18.0053 3.56209 17.5904ZM23.5629 29.0874H8.31991C6.76797 29.0874 5.36269 28.1559 4.73221 26.7662C5.30952 26.6222 5.81018 26.2067 6.03998 25.6206C6.29326 24.975 6.52336 24.3803 6.74348 23.8025C6.82992 23.5757 6.71614 23.3218 6.48931 23.2353C6.26247 23.149 6.00859 23.2627 5.92216 23.4895C5.70301 24.0647 5.47388 24.6567 5.22169 25.2997C5.03959 25.7642 4.54316 26.0303 4.06583 25.9182C3.76594 25.8482 3.47314 25.7418 3.1961 25.6019C2.7595 25.3808 2.54996 24.8575 2.70864 24.3849C3.83538 21.0319 5.06442 17.6552 6.36158 14.3487C6.54398 13.8841 7.04074 13.6178 7.51677 13.7293C7.81962 13.8004 8.11246 13.907 8.38771 14.0465C8.82439 14.2671 9.03376 14.7902 8.87476 15.2633C8.13736 17.4574 7.35241 19.6729 6.54158 21.8483C6.45679 22.0757 6.57244 22.3288 6.79988 22.4136C7.02732 22.4984 7.28037 22.3827 7.36516 22.1553C7.91768 20.6727 8.45783 19.1717 8.97968 17.6714C11.2905 17.6965 13.6157 17.7095 15.9414 17.7095C18.2672 17.7095 20.5927 17.6966 22.9037 17.6714C23.8314 20.3388 24.816 23.0039 25.8427 25.6202C26.0726 26.2063 26.5733 26.6218 27.1507 26.7659C26.5203 28.1557 25.1148 29.0874 23.5629 29.0874ZM28.687 25.6012C28.4106 25.7408 28.1177 25.8475 27.8163 25.9181C27.3401 26.0297 26.8433 25.7636 26.661 25.2991C25.3665 22.0001 24.1374 18.6234 23.008 15.2628C22.8491 14.7898 23.0585 14.2667 23.4952 14.046C23.7714 13.9064 24.0644 13.7997 24.3658 13.7291C24.4389 13.712 24.5124 13.7037 24.5852 13.7037C24.9871 13.7037 25.3668 13.9548 25.5212 14.3481C26.8157 17.6471 28.0446 21.0237 29.1741 24.3845C29.333 24.8574 29.1236 25.3805 28.687 25.6012ZM27.7047 17.6016C27.9015 17.598 28.0983 17.5948 28.2951 17.5912L28.3108 17.5908C28.3141 17.5908 28.3175 17.5904 28.3208 17.5904C28.2973 18.0051 28.2671 18.488 28.2284 19.0231C28.0555 18.5485 27.8807 18.0747 27.7047 17.6016ZM29.9731 15.3113C29.8402 15.9689 29.3334 16.4983 28.6794 16.6606C28.5561 16.692 28.4258 16.7093 28.2933 16.7121L28.2787 16.7124C27.9783 16.718 27.678 16.7232 27.3776 16.7283C27.0366 15.8235 26.6906 14.9223 26.3393 14.027C25.9987 13.1587 25.0637 12.6627 24.1653 12.8733C23.796 12.9599 23.4371 13.0905 23.0987 13.2616C22.2749 13.6779 21.8777 14.6586 22.1748 15.5428C22.3151 15.9602 22.4569 16.3778 22.6001 16.7955C18.1778 16.8414 13.7045 16.8414 9.28216 16.7955C9.42548 16.3777 9.56776 15.9601 9.70774 15.5434C10.0051 14.6589 9.60788 13.6782 8.78434 13.2622C8.44729 13.0914 8.08838 12.9607 7.71736 12.8736C6.81889 12.6632 5.88424 13.1593 5.54326 14.0276C5.19188 14.9232 4.84598 15.8243 4.50525 16.7284C4.20465 16.7233 3.90399 16.718 3.6034 16.7125L3.59045 16.7122C3.45679 16.7094 3.32659 16.692 3.20073 16.66C2.54926 16.4983 2.0424 15.9689 1.90945 15.311C1.79067 14.7259 1.79067 14.1326 1.90951 13.5473C2.07076 12.7508 2.77731 12.1616 3.58963 12.1463C11.7856 11.989 20.097 11.989 28.2931 12.1463C29.1053 12.1616 29.8118 12.7508 29.9732 13.5476C30.092 14.1325 30.092 14.7258 29.9731 15.3113Z" fill="#3BB77E"/>
<path d="M10.132 19.2139H10.1023C9.09586 19.2163 8.28368 20.0107 8.25331 21.0224C8.21765 22.2139 8.21765 23.4223 8.25331 24.6138C8.28368 25.6255 9.09582 26.4199 10.1027 26.4223H10.132C11.1384 26.4199 11.9506 25.6255 11.981 24.6138C12.0167 23.4223 12.0167 22.2139 11.981 21.0224C11.9505 20.0106 11.1384 19.2163 10.132 19.2139ZM11.1024 24.5875C11.0866 25.1133 10.6503 25.5421 10.1302 25.5433H10.1044C9.58392 25.5421 9.14761 25.1133 9.13186 24.5875C9.09665 23.4134 9.09665 22.2228 9.13186 21.0487C9.14761 20.5228 9.58392 20.0941 10.1047 20.0928H10.1295C10.65 20.0941 11.0866 20.5228 11.1024 21.0487C11.1376 22.2228 11.1376 23.4134 11.1024 24.5875Z" fill="#3BB77E"/>
<path d="M15.9562 19.2139H15.9265C14.9201 19.2163 14.1079 20.0107 14.0775 21.0224C14.0419 22.2139 14.0419 23.4223 14.0775 24.6138C14.1079 25.6255 14.92 26.4199 15.9269 26.4223H15.9562C16.9627 26.4199 17.7748 25.6255 17.8052 24.6138C17.8408 23.4223 17.8408 22.2139 17.8052 21.0224C17.7748 20.0107 16.9627 19.2163 15.9562 19.2139ZM16.9266 24.5875C16.9108 25.1133 16.4746 25.5421 15.9545 25.5433H15.9287C15.4082 25.5421 14.9719 25.1133 14.9561 24.5875C14.9209 23.4134 14.9209 22.2228 14.9561 21.0487C14.9719 20.5228 15.4082 20.0941 15.929 20.0928H15.9538C16.4743 20.0941 16.9108 20.5228 16.9266 21.0487C16.9618 22.2228 16.9618 23.4134 16.9266 24.5875Z" fill="#3BB77E"/>
<path d="M21.7803 19.2139H21.7507C20.7442 19.2163 19.9321 20.0107 19.9018 21.0224C19.8661 22.2139 19.8661 23.4223 19.9018 24.6138C19.9321 25.6255 20.7442 26.4199 21.7511 26.4223H21.7804C22.7869 26.4199 23.599 25.6255 23.6294 24.6138C23.6651 23.4223 23.6651 22.2139 23.6294 21.0224C23.599 20.0107 22.7869 19.2163 21.7803 19.2139ZM22.7508 24.5875C22.7351 25.1133 22.2988 25.5421 21.7787 25.5433H21.7529C21.2324 25.5421 20.7961 25.1133 20.7804 24.5875C20.7451 23.4134 20.7451 22.2228 20.7804 21.0487C20.7961 20.5228 21.2324 20.0941 21.7532 20.0928H21.778C22.2985 20.0941 22.7351 20.5228 22.7509 21.0487C22.786 22.2228 22.786 23.4134 22.7508 24.5875Z" fill="#3BB77E"/>
</g>
</g>
</g>
<defs>
<clipPath id="clip0_6511_7407">
<rect width="30" height="30" fill="white" transform="translate(0.941406 0.0499878)"/>
</clipPath>
<clipPath id="clip1_6511_7407">
<rect width="30" height="30" fill="white" transform="translate(0.941406 0.0499878)"/>
</clipPath>
<clipPath id="clip2_6511_7407">
<rect width="30" height="30" fill="white" transform="translate(0.941406 0.0499878)"/>
</clipPath>
</defs>
</svg>
