<svg width="31" height="31" viewBox="0 0 31 31" fill="none" xmlns="http://www.w3.org/2000/svg">
<g clip-path="url(#clip0_6511_7422)">
<g clip-path="url(#clip1_6511_7422)">
<g clip-path="url(#clip2_6511_7422)">
<mask id="mask0_6511_7422" style="mask-type:luminance" maskUnits="userSpaceOnUse" x="0" y="0" width="31" height="31">
<path d="M30.9414 0.0499878H0.941406V30.05H30.9414V0.0499878Z" fill="white"/>
</mask>
<g mask="url(#mask0_6511_7422)">
<path d="M25.1289 13.3625H13.8789V14.1125L14.0664 14.4875L15.0039 15.425L15.7539 15.8L16.1289 16.3625L15.9414 17.1125L14.6289 17.675L13.8789 18.9875L13.6914 22.925L14.2539 27.2375L14.6289 28.55L15.3789 29.3C15.5664 29.3625 16.0164 29.4875 16.3164 29.4875C16.6914 29.4875 18.3789 29.675 18.7539 29.675H20.8164H22.1289L21.7539 28.925C21.6289 28.6125 21.3789 27.875 21.3789 27.425C21.3789 26.975 21.2539 25.7375 21.1914 25.175V22.3625C21.1914 22.0625 21.5664 19.8625 21.7539 18.8V18.2375C21.7539 18.05 22.3164 18.05 22.5039 17.8625C22.6914 17.675 23.2539 17.675 23.4414 17.675C23.6289 17.675 24.1914 17.4875 24.3789 17.4875C24.5664 17.4875 24.1914 17.3 24.0039 17.1125C23.8164 16.925 24.0039 16.925 24.0039 16.7375C24.0039 16.55 24.0039 16.175 23.8164 15.9875C23.6664 15.8375 24.1289 15.55 24.3789 15.425C24.5664 15.3625 24.9414 15.2 24.9414 15.05C24.9414 14.9 25.3164 14.7375 25.5039 14.675L25.8789 14.1125V13.55L25.1289 13.3625Z" fill="#FDC040"/>
<path d="M3.77734 23.1473C3.77734 24.0865 4.54147 24.8507 5.48068 24.8507C6.4199 24.8507 7.18404 24.0865 7.18404 23.1473C7.18404 22.208 6.4199 21.4439 5.48068 21.4439C4.54147 21.4439 3.77734 22.208 3.77734 23.1473ZM6.30519 23.1473C6.30519 23.6019 5.93537 23.9717 5.48072 23.9717C5.0261 23.9717 4.65631 23.6019 4.65631 23.1473C4.65631 22.6927 5.02614 22.3228 5.48072 22.3228C5.93529 22.3228 6.30519 22.6927 6.30519 23.1473Z" fill="#3BB77E"/>
<path d="M7.64573 20.7992C8.38519 20.7992 8.9868 20.1976 8.9868 19.4582C8.9868 18.7187 8.38519 18.1171 7.64573 18.1171C6.90626 18.1171 6.30469 18.7187 6.30469 19.4582C6.30469 20.1976 6.90626 20.7992 7.64573 20.7992ZM7.64573 18.996C7.90061 18.996 8.10791 19.2033 8.10791 19.4581C8.10791 19.7129 7.90061 19.9202 7.64573 19.9202C7.39091 19.9202 7.18357 19.7129 7.18357 19.4581C7.18357 19.2033 7.39095 18.996 7.64573 18.996Z" fill="#3BB77E"/>
<path d="M12.3228 26.299C12.3228 25.5596 11.7212 24.958 10.9817 24.958C10.2423 24.958 9.64062 25.5596 9.64062 26.299C9.64062 27.0385 10.2423 27.6401 10.9817 27.6401C11.7212 27.6401 12.3228 27.0385 12.3228 26.299ZM10.5196 26.299C10.5196 26.0442 10.7269 25.8369 10.9818 25.8369C11.2367 25.8369 11.444 26.0442 11.444 26.299C11.444 26.5539 11.2367 26.7612 10.9818 26.7612C10.7269 26.7612 10.5196 26.5539 10.5196 26.299Z" fill="#3BB77E"/>
<path d="M30.0051 18.8848C29.8785 17.9643 29.0833 17.2701 28.1553 17.2701H27.844L28.144 16.4901C28.2311 16.2636 28.1181 16.0093 27.8915 15.9222C27.6649 15.835 27.4107 15.9482 27.3237 16.1747L26.9024 17.2701H25.0737C25.0117 17.2404 24.949 17.2125 24.8852 17.1887C24.4283 17.0184 24.1967 16.7531 24.1967 16.4004C24.1967 16.0718 24.7523 15.8052 24.9916 15.7056C25.7016 15.4094 26.2105 14.7828 26.3529 14.0292C26.6478 12.4643 26.7818 10.7899 26.8355 9.93053C26.8628 9.48428 26.7617 9.0477 26.5434 8.66801C25.3961 6.67324 23.3179 5.31499 22.6229 4.89923V3.49389H22.6458C22.8885 3.49389 23.0852 3.29714 23.0852 3.05444V1.47423C23.0852 0.688894 22.4463 0.0499878 21.6609 0.0499878H18.1806C17.3953 0.0499878 16.7563 0.688894 16.7563 1.47423V3.05444C16.7563 3.29714 16.953 3.49389 17.1958 3.49389H17.2188V4.89904C16.7702 5.16735 15.7454 5.82866 14.7667 6.7998V6.49148C15.2672 6.22069 15.608 5.69085 15.608 5.0829C15.608 4.20041 14.8901 3.48253 14.0076 3.48253H7.06392C6.18147 3.48253 5.46357 4.20049 5.46357 5.0829C5.46357 5.691 5.80452 6.22091 6.30526 6.49166V7.83623C5.70372 8.18715 4.06962 9.23021 2.63008 10.9595C2.37145 11.271 2.20663 11.6491 2.15343 12.053C2.08188 12.5965 1.97466 13.4838 1.87024 14.6243C1.84809 14.866 2.0261 15.0799 2.2678 15.102C2.28139 15.1032 2.29493 15.1039 2.30835 15.1039C2.53294 15.1039 2.7246 14.9326 2.74546 14.7045C2.84858 13.5783 2.95422 12.7033 3.02477 12.1678C3.04774 11.9935 3.10598 11.8277 3.19458 11.6796H13.1534C13.2309 12.4106 13.3392 13.2343 13.4887 14.0289C13.6304 14.7825 14.1393 15.4094 14.8504 15.7057C15.0891 15.8051 15.6443 16.0716 15.6443 16.4004C15.6443 16.7532 15.413 17.0184 14.9563 17.1887C14.1363 17.495 13.5581 18.2505 13.4834 19.1133C13.3104 21.1037 13.182 24.9551 14.2661 28.3867C14.3574 28.6759 14.4998 28.9373 14.6812 29.1628C14.5968 29.168 14.5122 29.1711 14.4273 29.1711H6.64381C4.51921 29.1711 2.73303 27.5144 2.57741 25.3995C2.37643 22.6677 2.3861 19.6553 2.60624 16.446C2.62282 16.2038 2.44 15.9941 2.1979 15.9775C1.95596 15.9607 1.74596 16.1436 1.72938 16.3858C1.50643 19.6365 1.49682 22.6908 1.70091 25.4639C1.7929 26.7148 2.35065 27.8737 3.27139 28.7274C4.19131 29.5802 5.38902 30.05 6.64381 30.05H14.4274C14.852 30.05 15.2724 29.9961 15.6795 29.8902C15.949 29.9935 16.2408 30.0497 16.5438 30.0497L28.1553 30.05C29.0833 30.05 29.8785 29.3558 30.0051 28.4352C30.4407 25.2666 30.4407 22.0534 30.0051 18.8848ZM29.4119 25.3208C29.0618 25.5349 28.6636 25.6476 28.2485 25.6476C27.0168 25.6476 26.0149 24.6458 26.0149 23.4146C26.0149 22.183 27.0169 21.181 28.2485 21.181C28.6523 21.181 29.0406 21.2876 29.383 21.4903C29.464 22.7658 29.4739 24.0446 29.4119 25.3208ZM25.9583 9.87623C25.9163 10.5478 25.8241 11.7291 25.6422 12.9528H14.1997C14.0181 11.7302 13.9253 10.5483 13.8828 9.87675C13.8661 9.60251 13.9272 9.33626 14.0601 9.10601C14.1137 9.01279 14.1699 8.92106 14.2281 8.83073H25.6134C25.6716 8.92106 25.7279 9.01283 25.7815 9.10605C25.9139 9.33623 25.9749 9.6027 25.9583 9.87623ZM7.18418 6.68333H13.8878V7.65416H7.18418V6.68333ZM17.6352 1.47423C17.6352 1.17352 17.8799 0.928894 18.1806 0.928894H21.6609C21.9616 0.928894 22.2063 1.17352 22.2063 1.47423V2.61499H17.6352V1.47423ZM21.744 3.49389V4.71375H18.0977V3.49389H21.744ZM17.7741 5.59268H22.0674C22.4385 5.80939 23.8329 6.66896 24.9487 7.95187H14.8928C16.0086 6.66874 17.4035 5.80913 17.7741 5.59268ZM7.06392 4.36144H14.0076C14.4054 4.36144 14.7291 4.6851 14.7291 5.0829C14.7291 5.48059 14.4057 5.80406 14.0081 5.80436H7.06336C6.66574 5.80406 6.34242 5.48051 6.34242 5.0829C6.34242 4.6851 6.66608 4.36144 7.06392 4.36144ZM3.95688 10.8006C5.22507 9.50051 6.51121 8.72936 6.85774 8.5332H13.3784C13.3515 8.57771 13.3245 8.62215 13.2986 8.6673C13.0796 9.04676 12.9783 9.48353 13.0057 9.93131C13.0205 10.1663 13.0415 10.4627 13.07 10.8006H3.95688ZM28.1553 29.1711H23.2979L22.9897 29.1708C22.5012 29.1679 22.0833 28.8013 22.0165 28.3155C21.9473 27.8118 21.8891 27.3049 21.8436 26.8088C21.8213 26.5671 21.6074 26.3889 21.3657 26.4114C21.124 26.4336 20.9461 26.6475 20.9684 26.8892C21.0152 27.3983 21.0749 27.9184 21.1458 28.4352C21.1827 28.7036 21.2768 28.9525 21.4141 29.1707H16.5438C15.8808 29.1707 15.3023 28.7493 15.1043 28.122C14.066 24.8353 14.1917 21.1147 14.359 19.1892C14.4046 18.6624 14.7598 18.2003 15.2636 18.0121C16.0641 17.7136 16.5233 17.1261 16.5233 16.4003C16.5233 15.9667 16.2916 15.3533 15.1883 14.8944C14.7517 14.7124 14.4392 14.3281 14.3525 13.8664C14.3503 13.8549 14.3482 13.8432 14.3461 13.8316H25.4956C25.4935 13.8431 25.4914 13.8546 25.4892 13.866C25.4019 14.328 25.0893 14.7124 24.6536 14.8943C23.5494 15.3536 23.3177 15.9668 23.3177 16.4004C23.3177 16.7219 23.4082 17.016 23.5782 17.2701H22.9955C22.0675 17.2701 21.2723 17.9643 21.1457 18.8848C20.862 20.9445 20.7624 23.0432 20.8496 25.1225C20.8598 25.365 21.0669 25.553 21.307 25.5431C21.5495 25.533 21.7379 25.3281 21.7277 25.0857C21.6428 23.0586 21.7399 21.0127 22.0164 19.0046C22.0836 18.5169 22.5044 18.149 22.9955 18.149H28.1553C28.6464 18.149 29.0673 18.5169 29.1344 19.0046C29.2022 19.4972 29.2578 19.9909 29.304 20.4854C28.9687 20.3646 28.6131 20.3021 28.2485 20.3021C26.5322 20.3021 25.136 21.6983 25.136 23.4146C25.136 25.1305 26.5322 26.5264 28.2485 26.5264C28.6291 26.5264 28.9995 26.4585 29.3475 26.3271C29.2955 26.9913 29.2253 27.6544 29.1344 28.3154C29.0673 28.8032 28.6464 29.1711 28.1553 29.1711Z" fill="#3BB77E"/>
</g>
</g>
</g>
</g>
<defs>
<clipPath id="clip0_6511_7422">
<rect width="30" height="30" fill="white" transform="translate(0.941406 0.0499878)"/>
</clipPath>
<clipPath id="clip1_6511_7422">
<rect width="30" height="30" fill="white" transform="translate(0.941406 0.0499878)"/>
</clipPath>
<clipPath id="clip2_6511_7422">
<rect width="30" height="30" fill="white" transform="translate(0.941406 0.0499878)"/>
</clipPath>
</defs>
</svg>
