<svg width="31" height="31" viewBox="0 0 31 31" fill="none" xmlns="http://www.w3.org/2000/svg">
<g clip-path="url(#clip0_6511_7439)">
<g clip-path="url(#clip1_6511_7439)">
<g clip-path="url(#clip2_6511_7439)">
<mask id="mask0_6511_7439" style="mask-type:luminance" maskUnits="userSpaceOnUse" x="0" y="0" width="31" height="31">
<path d="M30.9414 0.0500488H0.941406V30.05H30.9414V0.0500488Z" fill="white"/>
</mask>
<g mask="url(#mask0_6511_7439)">
<path d="M9.37891 21.4251C8.47891 21.2751 8.00389 21.6126 7.87891 21.8001L7.69141 21.9876C7.50391 22.2376 7.12891 22.7751 7.12891 22.9251V24.0501C7.12891 24.2376 7.12891 24.8001 7.31641 25.1751C7.50391 25.5501 7.50391 25.7376 7.69141 25.9251C7.87891 26.1126 8.06641 26.3001 8.25391 26.3001C8.44141 26.3001 9.37891 26.4876 9.56641 26.4876H11.6289C12.1914 26.4876 12.3789 26.3001 12.7539 26.3001C13.1289 26.3001 13.5039 26.1126 13.5039 25.9251C13.5039 25.7376 13.6914 25.5501 13.8789 25.3626C14.0664 25.1751 13.8789 24.8001 14.0664 24.4909C14.2539 24.1816 14.0664 24.0501 14.0664 23.8626V22.9251C14.0664 22.7376 13.8789 22.5501 13.8789 22.3626C13.8789 22.1751 13.5039 21.9876 13.3164 21.8001C13.1664 21.6501 12.7539 21.4876 12.5664 21.4251C11.8789 21.4876 10.2789 21.5751 9.37891 21.4251Z" fill="#FDC040"/>
<path d="M26.0664 11.675C23.3664 12.725 18.1914 12.1126 15.9414 11.675L15.3789 12.05L14.4414 13.55L13.8789 14.8625C14.4789 15.0125 16.2539 16.55 17.0664 17.3L17.6289 18.425C18.9789 18.575 19.3164 19.7375 19.3164 20.3L19.5039 24.2375C22.0539 24.9875 27.9414 23.8 30.5664 23.1125C30.7164 22.8125 30.1289 19.6126 29.8164 18.05C29.0664 15.8 27.0039 12.8626 26.0664 11.675Z" fill="#FDC040"/>
<path d="M28.7272 14.6443C27.8316 13.0075 26.9414 11.9498 26.6207 11.5917V9.17589L30.781 5.75983C30.8801 5.67842 30.9387 5.55789 30.9415 5.42968C30.9443 5.30147 30.8909 5.1785 30.7955 5.09293L27.6477 2.27154C27.467 2.10957 27.1891 2.12481 27.0271 2.30546C26.865 2.48617 26.8803 2.76404 27.061 2.92605L29.8274 5.4056L26.6209 8.03852V6.24125C26.6209 5.99855 26.4242 5.80175 26.1814 5.80175C25.9386 5.80175 25.742 5.99855 25.742 6.24125L25.7417 11.3917C22.6038 11.8995 19.428 11.8994 16.2902 11.3915V6.24125C16.2902 5.99855 16.0935 5.80175 15.8507 5.80175C15.608 5.80175 15.4112 5.99855 15.4112 6.24125V8.03867L12.2045 5.4056L15.6255 2.33886C16.1288 1.88756 16.7787 1.69999 17.4042 1.77429C17.533 2.32755 17.8288 3.48805 18.283 4.64417C19.0294 6.54388 19.9001 7.6796 20.8706 8.01962C20.9177 8.03608 20.9668 8.04437 21.0159 8.04437C21.065 8.04437 21.1142 8.03608 21.1611 8.01962C22.1317 7.6796 23.0024 6.54388 23.749 4.6442C24.2025 3.49028 24.4979 2.33283 24.6272 1.77822C25.0144 1.73192 25.4143 1.78372 25.786 1.94287C26.0093 2.03844 26.2675 1.9349 26.363 1.71183C26.4586 1.48869 26.3551 1.2304 26.132 1.13489C25.0031 0.65153 23.6869 0.873552 22.7786 1.70028L22.373 2.06944C21.5993 2.774 20.4328 2.774 19.6593 2.06944L19.2539 1.70028C18.0564 0.610163 16.2442 0.603425 15.0387 1.68452L11.2364 5.09304C11.1409 5.17862 11.0876 5.30165 11.0904 5.42979C11.0931 5.558 11.1518 5.67853 11.2508 5.75994L15.4111 9.17604V11.5915C15.123 11.9121 14.3826 12.7877 13.5934 14.1304C12.9251 13.7742 12.2182 13.4226 11.5022 13.0666C10.8765 12.7555 10.2464 12.4421 9.6414 12.1239C10.2326 11.3835 10.6887 10.5455 10.8885 9.563C11.1939 8.06158 10.7472 6.72043 9.66289 5.88339C8.63494 5.08989 7.21931 4.913 6.14018 5.44322C5.5617 5.72743 4.5913 6.46502 4.5913 8.21143C4.5913 9.31689 5.29335 10.3619 6.73766 11.4064C7.18943 11.7331 7.69736 12.0494 8.23796 12.3582C7.56773 13.0175 6.79856 13.6042 6.07189 14.1584C4.50745 15.3517 3.02315 16.4847 2.98477 18.0113C2.02766 18.2407 1.28917 19.0388 1.16061 20.0441C0.868337 22.3329 0.868337 24.6539 1.16061 26.9428C1.30828 28.0968 2.26017 28.9788 3.42412 29.0398C5.7579 29.1615 8.10806 29.2223 10.4583 29.2223C12.8085 29.2223 15.1588 29.1614 17.4926 29.0398C18.6569 28.9787 19.6085 28.0967 19.7554 26.9428C19.843 26.2585 19.9037 25.5713 19.9389 24.8829C20.2965 24.8936 20.657 24.8994 21.0159 24.8994C26.753 24.8994 30.4961 23.557 30.6527 23.4999C30.8261 23.4365 30.9415 23.2717 30.9415 23.0871C30.9416 19.454 29.7374 16.4906 28.7272 14.6443ZM19.0676 2.71903C20.1782 3.73093 21.8537 3.73093 22.9649 2.71915L23.3704 2.35005C23.4528 2.27505 23.5399 2.20702 23.6308 2.14596C23.4782 2.72817 23.244 3.52655 22.9311 4.32257C22.1986 6.18669 21.5069 6.8852 21.0161 7.12843C20.5253 6.8852 19.8336 6.18669 19.1012 4.32257C18.7884 3.52643 18.5542 2.72753 18.4016 2.14508C18.492 2.2062 18.5792 2.27441 18.6623 2.34999L19.0676 2.71903ZM5.47046 8.21117C5.47046 7.25619 5.83613 6.57174 6.52796 6.2318C6.81731 6.08964 7.14795 6.02068 7.4883 6.02068C8.05703 6.02068 8.6526 6.21339 9.12604 6.57887C9.60143 6.9458 10.3506 7.79867 10.0275 9.3875C9.85035 10.2585 9.41696 11.0162 8.85139 11.6955C6.95201 10.6311 5.47046 9.50105 5.47046 8.21117ZM3.46994 18.8251C4.25331 18.7844 5.03696 18.7504 5.79919 18.7241C6.04178 18.7156 6.23156 18.5123 6.22313 18.2697C6.21469 18.027 6.01283 17.838 5.76874 17.8457C5.14714 17.8672 4.51131 17.8939 3.87308 17.925C3.98629 16.8554 5.21036 15.9208 6.60514 14.8571C7.42448 14.2321 8.29429 13.5687 9.04189 12.8004C9.71535 13.1593 10.4185 13.509 11.111 13.8534C11.8043 14.1981 12.5031 14.5457 13.1658 14.8993C12.7305 15.7265 12.3023 16.6891 11.9479 17.7736C10.4696 17.7571 8.99363 17.7635 7.52873 17.7957C7.28603 17.801 7.09365 18.002 7.09898 18.2447C7.1043 18.4874 7.30429 18.6818 7.54793 18.6744C10.824 18.6025 14.1546 18.6532 17.447 18.8251C18.1863 18.8634 18.7905 19.4228 18.8838 20.1553C18.9455 20.6377 18.993 21.1215 19.0278 21.6061C18.9923 22.0925 18.944 22.5753 18.8838 23.0424C18.7906 23.7744 18.1862 24.3335 17.4463 24.3719C16.4513 24.4238 15.4516 24.4643 14.4661 24.4939C14.4872 23.8733 14.4735 23.2502 14.4238 22.6331C14.3566 21.7984 13.6795 21.1347 12.8489 21.0893C11.4269 21.0115 9.98483 21.0114 8.56313 21.0893C7.7325 21.1347 7.05548 21.7984 6.98824 22.6331C6.93814 23.2549 6.9246 23.8828 6.94639 24.5081C5.78906 24.4773 4.62229 24.4322 3.46994 24.3719C2.73034 24.3335 2.12587 23.7745 2.0327 23.0423C1.97375 22.5806 1.92541 22.0994 1.88861 21.6114C1.92342 21.125 1.97088 20.6394 2.0327 20.1553C2.12633 19.4229 2.73081 18.8634 3.46994 18.8251ZM13.9392 15.3256C15.363 16.1404 16.5133 16.9926 16.8999 17.9192C15.56 17.8552 14.2152 17.8109 12.8708 17.7868C13.1876 16.8693 13.5604 16.0445 13.9392 15.3256ZM13.5476 25.1742C13.5155 25.5727 13.1945 25.8894 12.8009 25.911C11.4108 25.9871 10.0013 25.9871 8.61105 25.911C8.21745 25.8894 7.89641 25.5727 7.86428 25.1742C7.79824 24.3546 7.79824 23.5233 7.86428 22.7037C7.89641 22.3052 8.21745 21.9884 8.61109 21.9669C9.30611 21.9289 10.0061 21.9098 10.706 21.9098C11.4059 21.9098 12.1058 21.9289 12.8009 21.9669C13.1945 21.9884 13.5155 22.3052 13.5476 22.7037C13.6137 23.5233 13.6137 24.3546 13.5476 25.1742ZM17.4469 28.1618C12.8097 28.4036 8.10728 28.4036 3.47024 28.1618C2.73099 28.1231 2.12633 27.5634 2.0327 26.8311C1.93578 26.0721 1.87285 25.3093 1.84238 24.5455C2.25173 24.9559 2.80822 25.2177 3.42424 25.2496C4.61145 25.3118 5.81419 25.358 7.00631 25.389C7.1352 26.1548 7.78099 26.7459 8.56305 26.7886C9.27405 26.8276 9.99004 26.847 10.706 26.847C11.4219 26.847 12.1379 26.8276 12.8488 26.7886C13.6357 26.7456 14.2844 26.1475 14.4077 25.375C15.427 25.3451 16.4621 25.3035 17.4919 25.2496C18.1083 25.2177 18.665 24.9557 19.0744 24.5452C19.0439 25.3091 18.9809 26.0721 18.8838 26.8313C18.7905 27.5635 18.1862 28.1231 17.4469 28.1618ZM28.6203 23.1639C28.5299 21.8427 28.3628 20.5264 28.122 19.2435C28.0772 19.0049 27.8478 18.8479 27.609 18.8927C27.3705 18.9374 27.2133 19.1671 27.2582 19.4057C27.5007 20.6978 27.6658 22.025 27.7515 23.3564C27.4132 23.4257 27.0295 23.4977 26.6048 23.5678C26.5517 21.8004 26.3631 20.0406 26.0421 18.3293C25.9973 18.0907 25.7676 17.9337 25.5291 17.9783C25.2906 18.0231 25.1335 18.2527 25.1783 18.4913C25.4972 20.1922 25.6823 21.9425 25.7296 23.7C24.4192 23.8798 22.8189 24.0203 21.0159 24.0203C20.6673 24.0203 20.3171 24.0148 19.9698 24.0044C19.9946 22.6818 19.9235 21.3577 19.7555 20.0443C19.6238 19.0094 18.8453 18.1942 17.8471 17.9927C17.5244 16.6498 16.1457 15.571 14.3685 14.5568C15.0709 13.368 15.7281 12.566 16.015 12.237C17.6749 12.5132 19.3455 12.6518 21.0162 12.6518C22.6867 12.6518 24.3572 12.5133 26.0171 12.2371C26.3468 12.6142 27.1631 13.6113 27.9704 15.0926C28.8954 16.7899 29.9926 19.4802 30.0593 22.7711C29.7735 22.8613 29.2834 23.0056 28.6203 23.1639Z" fill="#3BB77E"/>
<path d="M12.4684 22.6334C11.8814 22.606 11.2881 22.592 10.7049 22.592C10.1216 22.592 9.52827 22.606 8.94125 22.6334C8.71707 22.6439 8.53681 22.8216 8.52312 23.0457C8.48708 23.6383 8.48708 24.2394 8.52312 24.8321C8.53677 25.0562 8.71707 25.2339 8.94125 25.2444C9.52778 25.2718 10.1212 25.2858 10.7049 25.2858C11.2885 25.2858 11.8818 25.2719 12.4684 25.2444C12.6926 25.2339 12.8728 25.0562 12.8865 24.8321C12.9225 24.2394 12.9225 23.6384 12.8865 23.0457C12.8729 22.8217 12.6926 22.6439 12.4684 22.6334ZM12.0276 24.383C11.1442 24.4147 10.2654 24.4147 9.38217 24.383C9.37276 24.0874 9.37276 23.7905 9.38217 23.4949C10.266 23.4631 11.1438 23.4631 12.0276 23.4949C12.037 23.7905 12.037 24.0874 12.0276 24.383Z" fill="#3BB77E"/>
</g>
</g>
</g>
</g>
<defs>
<clipPath id="clip0_6511_7439">
<rect width="30" height="30" fill="white" transform="translate(0.941406 0.0500488)"/>
</clipPath>
<clipPath id="clip1_6511_7439">
<rect width="30" height="30" fill="white" transform="translate(0.941406 0.0500488)"/>
</clipPath>
<clipPath id="clip2_6511_7439">
<rect width="30" height="30" fill="white" transform="translate(0.941406 0.0500488)"/>
</clipPath>
</defs>
</svg>
