<svg width="31" height="31" viewBox="0 0 31 31" fill="none" xmlns="http://www.w3.org/2000/svg">
<g clip-path="url(#clip0_6511_7455)">
<g clip-path="url(#clip1_6511_7455)">
<g clip-path="url(#clip2_6511_7455)">
<path d="M11.8164 19.925C15.7514 19.925 18.9414 16.903 18.9414 13.175C18.9414 9.44713 15.7514 6.42505 11.8164 6.42505C7.88138 6.42505 4.69141 9.44713 4.69141 13.175C4.69141 16.903 7.88138 19.925 11.8164 19.925Z" fill="#FDC040"/>
<path d="M11.8994 20.4843C16.184 20.4843 19.6698 17.2599 19.6698 13.2965C19.6698 9.33308 16.184 6.10864 11.8994 6.10864C7.61471 6.10864 4.12891 9.33308 4.12891 13.2965C4.12891 17.2599 7.61471 20.4843 11.8994 20.4843ZM11.8994 6.98839C15.6989 6.98839 18.7901 9.81818 18.7901 13.2965C18.7901 16.7748 15.6989 19.6046 11.8994 19.6046C8.09981 19.6046 5.00865 16.7748 5.00865 13.2965C5.00865 9.81818 8.09981 6.98839 11.8994 6.98839Z" fill="#3BB77E"/>
<path d="M14.2812 12.1811C14.2812 12.8957 14.8626 13.4771 15.5772 13.4771C16.2917 13.4771 16.8731 12.8957 16.8731 12.1811C16.8731 11.4666 16.2917 10.8853 15.5772 10.8853C14.8626 10.8853 14.2812 11.4666 14.2812 12.1811ZM15.5771 11.765C15.8066 11.765 15.9932 11.9517 15.9932 12.1811C15.9932 12.4106 15.8066 12.5973 15.5771 12.5973C15.3476 12.5973 15.1609 12.4106 15.1609 12.1811C15.1609 11.9517 15.3477 11.765 15.5771 11.765Z" fill="#3BB77E"/>
<path d="M13.4795 11.3308C14.194 11.3308 14.7754 10.7495 14.7754 10.0349C14.7754 9.32038 14.194 8.73901 13.4795 8.73901C12.765 8.73901 12.1836 9.32038 12.1836 10.0349C12.1836 10.7495 12.765 11.3308 13.4795 11.3308ZM13.4795 9.61873C13.7089 9.61873 13.8956 9.80544 13.8956 10.0349C13.8956 10.2643 13.7089 10.451 13.4795 10.451C13.2501 10.451 13.0634 10.2643 13.0634 10.0349C13.0634 9.80544 13.2501 9.61873 13.4795 9.61873Z" fill="#3BB77E"/>
<path d="M8.22557 13.4771C8.94018 13.4771 9.52154 12.8957 9.52154 12.1811C9.52154 11.4666 8.94018 10.8853 8.22557 10.8853C7.51105 10.8853 6.92969 11.4666 6.92969 12.1811C6.92969 12.8957 7.51105 13.4771 8.22557 13.4771ZM8.22557 11.765C8.45508 11.765 8.64179 11.9517 8.64179 12.1811C8.64179 12.4106 8.45508 12.5973 8.22557 12.5973C7.99615 12.5973 7.80947 12.4106 7.80947 12.1811C7.80947 11.9517 7.99615 11.765 8.22557 11.765Z" fill="#3BB77E"/>
<path d="M10.3233 11.3308C11.0378 11.3308 11.6192 10.7495 11.6192 10.0349C11.6192 9.32038 11.0378 8.73901 10.3233 8.73901C9.60871 8.73901 9.02734 9.32038 9.02734 10.0349C9.02734 10.7495 9.60871 11.3308 10.3233 11.3308ZM10.3233 9.61873C10.5527 9.61873 10.7394 9.80544 10.7394 10.0349C10.7394 10.2643 10.5527 10.451 10.3233 10.451C10.0938 10.451 9.90713 10.2643 9.90713 10.0349C9.90713 9.80544 10.0938 9.61873 10.3233 9.61873Z" fill="#3BB77E"/>
<path d="M9.67858 13.0884C9.61746 13.3759 9.45411 13.6389 9.2062 13.849C8.64936 14.3206 8.35836 15.0097 8.40775 15.7393C8.4847 16.8759 9.40063 17.7833 10.5383 17.8498C10.9135 17.8717 11.2901 17.8008 11.6277 17.6443C11.7982 17.5653 12.0019 17.5653 12.1725 17.6443C12.4701 17.7822 12.798 17.8537 13.1284 17.8537C13.1729 17.8537 13.2175 17.8524 13.2619 17.8498C14.3996 17.7832 15.3155 16.8759 15.3924 15.7393C15.4418 15.0096 15.1508 14.3206 14.594 13.849C14.3461 13.6389 14.1827 13.3759 14.1217 13.0884C14.0156 12.5893 13.7511 12.1505 13.3568 11.8195C12.5263 11.1223 11.2738 11.1223 10.4433 11.8195C10.0491 12.1506 9.78467 12.5893 9.67858 13.0884ZM11.009 12.4933C11.517 12.0669 12.2831 12.0669 12.7911 12.4933C13.0337 12.6969 13.1962 12.9659 13.261 13.2712C13.363 13.7511 13.6273 14.1831 14.0253 14.5202C14.3666 14.8093 14.5449 15.232 14.5146 15.6799C14.4675 16.3755 13.9069 16.9308 13.2104 16.9716C12.9766 16.9852 12.7516 16.9431 12.5422 16.846C12.3382 16.7515 12.1191 16.7043 11.9 16.7043C11.681 16.7043 11.4619 16.7515 11.2578 16.846C11.0485 16.9431 10.8236 16.9853 10.5897 16.9716C9.89323 16.9308 9.33261 16.3755 9.28551 15.6799C9.25517 15.232 9.43356 14.8093 9.77485 14.5202C10.1728 14.1831 10.4371 13.7512 10.5391 13.2712C10.604 12.966 10.7665 12.6969 11.009 12.4933Z" fill="#3BB77E"/>
<path d="M29.2092 23.6004C30.1435 22.4084 30.6576 20.9256 30.6576 19.406C30.6576 15.6517 27.6032 12.5972 23.8488 12.5972C23.1469 12.5972 22.4612 12.7027 21.8024 12.9106C21.755 10.7357 21.6423 8.56382 21.4634 6.40352C21.3995 5.63616 21.5669 4.88751 21.9477 4.2385C22.4652 3.35585 22.9286 2.15017 22.1971 1.41861C21.8835 1.1053 21.0797 0.651106 17.7336 0.325591C15.6449 0.122424 13.3513 0.0500488 11.9014 0.0500488C10.4514 0.0500488 8.15786 0.122424 6.06911 0.32565C2.72295 0.651163 1.91919 1.10536 1.60553 1.41879C0.874092 2.15017 1.33749 3.35585 1.85503 4.23869C2.23573 4.88759 2.40318 5.6362 2.33919 6.40341C2.31438 6.70007 2.28981 7.0159 2.26201 7.3975C2.2443 7.63979 2.42641 7.85057 2.66869 7.86824C2.91104 7.88601 3.12178 7.70384 3.13943 7.46155C3.16705 7.08317 3.19134 6.77024 3.21591 6.47669C3.29503 5.5276 3.08682 4.59974 2.61391 3.79357C2.58987 3.75251 2.56735 3.71234 2.54494 3.67222C3.87667 3.11145 8.22566 2.74577 11.9014 2.74577C13.3005 2.74577 15.5206 2.81474 17.5556 3.00823C19.803 3.22196 20.8083 3.48758 21.2565 3.67445C21.2345 3.7138 21.2124 3.75322 21.1888 3.79351C20.7159 4.59974 20.5076 5.52752 20.5866 6.47642C21.0427 11.986 21.0667 17.572 20.6606 23.0871C19.7168 23.0869 18.7728 23.0943 17.8338 23.1097C17.7133 21.6133 16.457 20.4325 14.9301 20.4325C13.3237 20.4325 12.0168 21.7394 12.0168 23.3457C12.0168 24.0475 12.2681 24.7167 12.7183 25.2413C12.6057 25.3725 12.5055 25.5127 12.4187 25.6603C9.78746 25.6796 7.12196 25.5512 4.4921 25.2771C3.80453 25.2058 3.26465 24.6521 3.20835 23.9602C2.80729 19.066 2.74576 14.1011 3.02547 9.20361C3.03931 8.96106 2.85391 8.7532 2.61139 8.73932C2.36893 8.7256 2.16101 8.91089 2.14711 9.1534C1.86506 14.0915 1.92711 19.0973 2.33145 24.0317C2.42201 25.1454 3.29257 26.0371 4.40113 26.152C6.88912 26.4113 9.40841 26.5424 11.9023 26.5423C11.9612 26.5423 12.0199 26.5415 12.0787 26.5413C12.0383 26.7354 12.0168 26.9346 12.0168 27.1368C12.0168 28.7431 13.3236 30.05 14.93 30.05C16.4569 30.05 17.7132 28.8693 17.8337 27.3728C19.6839 27.4032 21.5531 27.4032 23.4028 27.3728C23.5233 28.8692 24.7797 30.05 26.3066 30.05C26.7753 30.05 27.2418 29.9358 27.6556 29.7197C27.871 29.6073 27.9544 29.3415 27.8419 29.1261C27.7294 28.9108 27.4636 28.8273 27.2484 28.9399C26.9557 29.0927 26.6388 29.1702 26.3066 29.1702C25.1853 29.1702 24.2731 28.258 24.2731 27.1368C24.2731 27.0859 24.2758 27.0304 24.2816 26.9622C24.2921 26.838 24.2494 26.7153 24.1643 26.6243C24.0791 26.5334 23.9595 26.4829 23.8348 26.4853C21.7008 26.5261 19.5363 26.5261 17.4018 26.4853C17.2779 26.4829 17.1576 26.5334 17.0723 26.6243C16.9872 26.7153 16.9445 26.838 16.955 26.9622C16.9608 27.0299 16.9635 27.0855 16.9635 27.1368C16.9635 28.258 16.0513 29.1702 14.9301 29.1702C13.8088 29.1702 12.8966 28.258 12.8966 27.1368C12.8966 26.5346 13.1619 25.9665 13.6246 25.5781C13.7242 25.4945 13.7817 25.3712 13.7817 25.2412C13.7817 25.1112 13.7242 24.9879 13.6246 24.9043C13.1619 24.5159 12.8966 23.9478 12.8966 23.3456C12.8966 22.2244 13.8088 21.3122 14.9301 21.3122C16.0513 21.3122 16.9635 22.2244 16.9635 23.3456C16.9635 23.3969 16.9608 23.4524 16.955 23.5202C16.9445 23.6444 16.9872 23.7671 17.0723 23.858C17.1576 23.9489 17.2777 23.9998 17.4018 23.9971C19.5363 23.9564 21.7007 23.9564 23.8348 23.9971C23.9596 23.9998 24.0791 23.9489 24.1643 23.858C24.2494 23.7671 24.2921 23.6444 24.2816 23.5202C24.2758 23.452 24.2731 23.3965 24.2731 23.3456C24.2731 22.2244 25.1853 21.3122 26.3066 21.3122C27.4281 21.3122 28.3406 22.2244 28.3406 23.3456C28.3406 23.9479 28.0752 24.516 27.6121 24.9041C27.5125 24.9877 27.4549 25.1111 27.4549 25.2412C27.4549 25.3713 27.5124 25.4947 27.6121 25.5783C28.0752 25.9664 28.3406 26.5345 28.3406 27.1368C28.3406 27.3936 28.2934 27.6437 28.2004 27.8802C28.1115 28.1063 28.2227 28.3616 28.4488 28.4506C28.6749 28.5395 28.9302 28.4283 29.0191 28.2022C29.1526 27.8628 29.2204 27.5044 29.2204 27.1369C29.2204 26.4349 28.969 25.7657 28.5186 25.2412C28.9142 24.7807 29.1561 24.2084 29.2092 23.6004ZM11.9015 1.86595C11.8219 1.86595 4.56166 1.87861 2.18946 2.87633C2.06829 2.48559 2.07697 2.19157 2.22758 2.04096C2.34658 1.92202 2.98148 1.50993 6.15431 1.20125C8.21175 1.00114 10.4721 0.929814 11.9014 0.929814C13.3306 0.929814 15.591 1.00114 17.6484 1.20125C20.8212 1.50993 21.4561 1.92202 21.575 2.04084C21.7258 2.19157 21.7345 2.48553 21.6133 2.87627C19.2411 1.87867 11.9811 1.86595 11.9015 1.86595ZM26.3067 20.4325C24.7798 20.4325 23.5234 21.6131 23.4029 23.1096C22.7845 23.0995 22.1638 23.094 21.5425 23.0906C21.7669 20.0183 21.8596 16.9245 21.8187 13.8338C22.4671 13.597 23.1486 13.477 23.8488 13.477C27.1181 13.477 29.7778 16.1368 29.7778 19.406C29.7778 20.4217 29.5143 21.4187 29.0242 22.2965C28.6021 21.2072 27.5435 20.4325 26.3067 20.4325Z" fill="#3BB77E"/>
</g>
</g>
</g>
<defs>
<clipPath id="clip0_6511_7455">
<rect width="30" height="30" fill="white" transform="translate(0.941406 0.0500488)"/>
</clipPath>
<clipPath id="clip1_6511_7455">
<rect width="30" height="30" fill="white" transform="translate(0.941406 0.0500488)"/>
</clipPath>
<clipPath id="clip2_6511_7455">
<rect width="30" height="30" fill="white" transform="translate(0.941406 0.0500488)"/>
</clipPath>
</defs>
</svg>
