<svg width="31" height="31" viewBox="0 0 31 31" fill="none" xmlns="http://www.w3.org/2000/svg">
<g clip-path="url(#clip0_6511_7471)">
<g clip-path="url(#clip1_6511_7471)">
<g clip-path="url(#clip2_6511_7471)">
<path d="M23.0664 20.3H16.3164C15.0738 20.3 14.0664 21.3074 14.0664 22.55V27.05C14.0664 28.2927 15.0738 29.3 16.3164 29.3H23.0664C24.309 29.3 25.3164 28.2927 25.3164 27.05V22.55C25.3164 21.3074 24.309 20.3 23.0664 20.3Z" fill="#FDC040"/>
<path d="M3.19141 2.86255L3.56641 3.80005L4.69141 3.42505L6.94141 3.23755L10.5039 3.05005L14.2539 3.23755L20.6289 3.80005L21.1914 3.23755L21.5664 2.30005C21.6289 2.05005 21.7539 1.51255 21.7539 1.36255C21.7539 1.21255 21.2539 1.17505 21.0039 1.17505L20.4414 1.36255L19.8789 1.55005H18.7539C18.5664 1.36255 18.1539 0.987549 18.0039 0.987549C17.8539 0.987549 17.5664 0.737548 17.4414 0.612549H16.5039L15.9414 1.17505L15.1914 1.55005H14.4414L13.5039 0.987549L12.5664 0.425049L11.6289 0.612549L11.0664 1.17505L10.1289 1.55005L9.19141 1.36255C9.00391 1.30005 8.59141 1.17505 8.44141 1.17505C8.29141 1.17505 8.12892 0.800049 8.06641 0.612549H7.50391L6.75391 0.800049C6.62892 0.925048 6.34141 1.17505 6.19141 1.17505C6.00391 1.17505 5.62891 1.36255 5.62891 1.55005C5.62891 1.73755 5.06641 1.55005 4.87891 1.55005C4.69141 1.55005 4.50391 1.55005 4.31641 1.36255C4.16641 1.21255 3.87891 1.17505 3.75391 1.17505H3.00391L2.81641 1.92505L3.19141 2.86255Z" fill="#FDC040"/>
<path d="M12.2415 19.3125C14.2297 19.3125 16.1037 18.7315 17.5185 17.6763C18.9718 16.5923 19.7722 15.139 19.7722 13.5842C19.7722 12.0293 18.9718 10.576 17.5185 9.49211C16.1037 8.43694 14.2297 7.85583 12.2415 7.85583C10.2534 7.85583 8.37937 8.43694 6.96461 9.49211C5.51134 10.576 4.71094 12.0293 4.71094 13.5842C4.71094 15.139 5.5113 16.5923 6.96461 17.6763C8.37937 18.7315 10.2534 19.3125 12.2415 19.3125ZM5.58986 13.5842C5.58986 10.9102 8.57381 8.73476 12.2415 8.73476C15.9093 8.73476 18.8932 10.9102 18.8932 13.5842C18.8932 16.2582 15.9093 18.4336 12.2415 18.4336C8.57381 18.4336 5.58986 16.2582 5.58986 13.5842Z" fill="#3BB77E"/>
<path d="M28.7618 25.8149C29.1278 25.5308 29.3269 25.1803 29.3269 24.7971C29.3269 24.414 29.1278 24.0635 28.7618 23.7794C29.0821 23.5573 29.2996 23.3004 29.4112 23.011C29.5085 22.7588 29.5706 22.3525 29.3134 21.8491C29.1129 21.4569 28.7955 21.2024 28.3952 21.1131C27.754 20.97 26.905 21.2588 25.8667 21.9713C25.3763 20.6358 24.1272 19.6796 22.6303 19.6118C22.3163 19.5976 22.0015 19.5865 21.6863 19.5767C21.9891 14.3457 21.893 9.04607 21.3996 3.81291C21.562 3.55127 21.8728 2.972 22.0679 2.10855C22.1854 1.58881 21.9642 1.07757 21.5046 0.806098C21.0519 0.538846 20.5062 0.590998 20.1144 0.93905C19.9177 1.11378 19.7318 1.22206 19.4134 1.22206C18.9952 1.22206 18.8085 1.03895 18.5258 0.761803C18.2024 0.444628 17.8 0.0500488 17.0229 0.0500488C16.2458 0.0500488 15.8434 0.444628 15.5201 0.761683C15.2374 1.03884 15.0507 1.22195 14.6326 1.22195C14.2145 1.22195 14.0278 1.03884 13.7452 0.761683C13.4218 0.444628 13.0193 0.0500488 12.2422 0.0500488C11.4652 0.0500488 11.0628 0.444628 10.7395 0.761683C10.4569 1.03884 10.2701 1.22195 9.85202 1.22195C9.43397 1.22195 9.24729 1.03884 8.96454 0.761683C8.64129 0.444628 8.23892 0.0500488 7.46184 0.0500488C6.6848 0.0500488 6.2825 0.444628 5.95922 0.761683C5.67654 1.03884 5.48987 1.22195 5.07193 1.22195C4.75363 1.22195 4.56777 1.11367 4.37113 0.938994C3.97948 0.590998 3.43396 0.53879 2.9812 0.805921C2.52152 1.07728 2.30038 1.58846 2.41781 2.1082C2.61293 2.972 2.92389 3.55139 3.08632 3.81295C3.01032 4.61871 2.94211 5.44041 2.88428 6.26035C2.86717 6.50245 3.04958 6.7126 3.29169 6.72962C3.53492 6.7465 3.74393 6.56429 3.76103 6.32215C3.81488 5.55891 3.87734 4.7935 3.94725 4.04166C9.45365 3.37865 15.0324 3.37865 20.5391 4.04166C21.0174 9.19307 21.1067 14.4078 20.8072 19.5555C19.418 19.5311 18.0237 19.5491 16.6427 19.6117C15.1457 19.6796 13.8966 20.6357 13.4062 21.9712C12.368 21.2587 11.5189 20.9698 10.8777 21.113C10.4775 21.2023 10.16 21.4568 9.95957 21.8491C9.70239 22.3524 9.76442 22.7587 9.86169 23.0109C9.94389 23.224 10.084 23.4193 10.2797 23.5963C8.17685 23.5369 6.05147 23.3799 3.94725 23.1263C3.48289 18.1257 3.38368 13.0616 3.65252 8.06924C3.66558 7.82687 3.47966 7.6198 3.23731 7.60679C2.9935 7.59344 2.78795 7.77966 2.77483 8.02199C2.50013 13.1229 2.60701 18.2973 3.09112 23.4047C2.92998 23.6626 2.6148 24.2447 2.41798 25.1164C2.30032 25.6363 2.52146 26.1477 2.98131 26.4192C3.4339 26.6865 3.97965 26.6341 4.37113 26.2863C4.56806 26.1115 4.75404 26.0032 5.07204 26.0032C5.49024 26.0032 5.67703 26.1863 5.95974 26.4636C6.28314 26.7806 6.68555 27.1751 7.46267 27.1751C8.23985 27.1751 8.64227 26.7806 8.96567 26.4636C9.24834 26.1863 9.4352 26.0032 9.85333 26.0032C9.99508 26.0032 10.1104 26.0248 10.2111 26.0632C10.051 26.2226 9.93377 26.3961 9.86154 26.5833C9.76427 26.8356 9.7022 27.2419 9.95938 27.7453C10.1598 28.1374 10.4773 28.3919 10.8776 28.4813C10.9841 28.5051 11.0963 28.5169 11.2142 28.5169C11.806 28.5169 12.5404 28.2166 13.4059 27.6226C13.8961 28.9584 15.1454 29.9147 16.6425 29.9825C17.6359 30.0275 18.6361 30.05 19.6364 30.05C20.6366 30.05 21.637 30.0275 22.6302 29.9825C24.1273 29.9146 25.3765 28.9584 25.8667 27.6226C26.7322 28.2166 27.4666 28.5169 28.0583 28.5169C28.1762 28.5169 28.2886 28.505 28.395 28.4812C28.7953 28.3919 29.1128 28.1374 29.3132 27.7451C29.5704 27.2418 29.5083 26.8356 29.411 26.5833C29.2996 26.2939 29.0821 26.0369 28.7618 25.8149ZM3.73701 3.18236C3.60183 2.9318 3.40835 2.5043 3.27511 1.91454C3.22677 1.70049 3.37999 1.59115 3.42804 1.5628C3.48611 1.52852 3.63752 1.46295 3.78746 1.59613C4.05202 1.8311 4.4371 2.10087 5.07193 2.10087C5.84893 2.10087 6.25127 1.70629 6.57459 1.38923C6.85719 1.11208 7.04394 0.928974 7.46188 0.928974C7.87989 0.928974 8.0666 1.11208 8.34932 1.38923C8.67253 1.70629 9.07494 2.10087 9.85202 2.10087C10.6291 2.10087 11.0315 1.70629 11.3548 1.38923C11.6375 1.11208 11.8242 0.928974 12.2422 0.928974C12.6603 0.928974 12.8471 1.11208 13.1297 1.38923C13.4531 1.70629 13.8555 2.10087 14.6326 2.10087C15.4097 2.10087 15.8121 1.70629 16.1354 1.38923C16.418 1.11208 16.6048 0.928974 17.0229 0.928974C17.4411 0.928974 17.6278 1.11208 17.9105 1.38923C18.2339 1.70629 18.6364 2.10087 19.4135 2.10087C20.0483 2.10087 20.4335 1.83116 20.6981 1.59613C20.8479 1.46301 20.9996 1.52846 21.0577 1.56285C21.1058 1.59127 21.2591 1.70061 21.2107 1.91471C21.0774 2.50465 20.8838 2.93222 20.749 3.1823C15.103 2.49392 9.38244 2.49392 3.73701 3.18236ZM22.1045 29.1237C21.5128 29.146 20.9192 29.161 20.3249 29.1672C20.5876 27.2394 21.0752 25.2932 21.7779 23.3745C21.8614 23.1466 21.7443 22.8942 21.5164 22.8107C21.2884 22.7273 21.0361 22.8444 20.9525 23.0723C20.2135 25.0905 19.7045 27.1399 19.4374 29.17C18.8466 29.1681 18.2563 29.1583 17.6673 29.1406C18.2629 24.809 19.8517 21.479 20.4004 20.4277C20.9533 20.4341 21.5056 20.4482 22.0562 20.4685C21.9292 20.7281 21.7795 21.0465 21.6173 21.417C21.52 21.6393 21.6212 21.8985 21.8436 21.9958C21.901 22.021 21.9607 22.0328 22.0196 22.0328C22.1889 22.0328 22.3502 21.9345 22.4224 21.7695C22.654 21.2407 22.8579 20.8236 23.0034 20.5396C23.5239 20.6418 23.9896 20.8888 24.3578 21.2374C23.6597 22.8003 22.5673 25.6644 22.1045 29.1237ZM8.35048 25.8358C8.06777 26.113 7.8809 26.2962 7.46278 26.2962C7.04462 26.2962 6.85783 26.1131 6.57515 25.8359C6.25172 25.5188 5.8493 25.1243 5.07215 25.1243C4.43792 25.1243 4.05272 25.3939 3.78764 25.629C3.63775 25.7621 3.48634 25.6967 3.42833 25.6624C3.38017 25.6339 3.22688 25.5245 3.2754 25.3101C3.41861 24.6758 3.63183 24.2288 3.76695 23.9886C5.83648 24.2402 7.92688 24.4018 9.99759 24.4681C9.96388 24.5744 9.94614 24.6843 9.94614 24.7972C9.94614 24.9112 9.96418 25.0223 9.99864 25.1297C9.95158 25.1265 9.90354 25.1243 9.85355 25.1243C9.07629 25.1243 8.67388 25.5188 8.35048 25.8358ZM11.0692 27.6235C10.9721 27.6018 10.8472 27.5506 10.7423 27.3453C10.6236 27.113 10.6508 26.9797 10.6818 26.8996C10.7728 26.6638 11.1047 26.4271 11.6163 26.2332C11.7887 26.1679 11.902 26.002 11.9001 25.8176C11.8982 25.6333 11.7814 25.4698 11.6077 25.4081C11.0699 25.2172 10.8251 24.9576 10.8251 24.7971C10.8251 24.6366 11.07 24.3769 11.6077 24.1861C11.7814 24.1244 11.8982 23.9609 11.9001 23.7765C11.902 23.5922 11.7887 23.4262 11.6163 23.361C11.1047 23.1671 10.7728 22.9305 10.6818 22.6946C10.6509 22.6145 10.6236 22.4812 10.7423 22.249C10.8472 22.0436 10.9721 21.9924 11.0692 21.9707C11.2762 21.9245 11.8874 21.9305 13.1982 22.9024C13.1943 22.9465 13.1904 22.9905 13.1881 23.0351C13.1264 24.2042 13.1264 25.3898 13.1881 26.5589C13.1904 26.6035 13.1943 26.6476 13.1982 26.6916C11.8876 27.6635 11.2765 27.6696 11.0692 27.6235ZM14.0657 23.0815C14.1403 21.6682 15.2653 20.554 16.6825 20.4898C16.697 20.4892 16.7116 20.4888 16.7261 20.4881C16.1231 21.7272 14.9972 24.3325 14.3656 27.626C14.1927 27.2904 14.0869 26.9137 14.0657 26.5129C14.0057 25.3744 14.0057 24.2199 14.0657 23.0815ZM15.1 28.5167C15.7517 24.5112 17.2196 21.4313 17.7273 20.4519C18.2896 20.4355 18.8532 20.4262 19.4171 20.4244C18.7235 21.8343 17.3286 25.0566 16.7848 29.1085C16.7507 29.1071 16.7165 29.106 16.6825 29.1045C16.0836 29.0774 15.5373 28.8622 15.1 28.5167ZM25.2072 26.5128C25.1401 27.7863 24.2198 28.8166 23.0015 29.0549C23.4183 26.1056 24.2993 23.6174 24.9554 22.067C25.0997 22.3772 25.1881 22.7194 25.2072 23.0814C25.2672 24.2199 25.2672 25.3744 25.2072 26.5128ZM28.5307 27.3452C28.4258 27.5506 28.3009 27.6018 28.2038 27.6235C27.9967 27.6696 27.3855 27.6636 26.0748 26.6918C26.0787 26.6477 26.0826 26.6036 26.0849 26.5591C26.1466 25.3899 26.1466 24.2043 26.0849 23.0352C26.0826 22.9906 26.0787 22.9466 26.0748 22.9025C27.3854 21.9307 27.9965 21.9246 28.2038 21.9709C28.3009 21.9925 28.4258 22.0438 28.5307 22.249C28.6494 22.4813 28.6221 22.6146 28.5911 22.6946C28.5002 22.9305 28.1683 23.1671 27.6566 23.361C27.4843 23.4263 27.371 23.5922 27.3728 23.7766C27.3748 23.9609 27.4916 24.1244 27.6653 24.1861C28.2031 24.377 28.4479 24.6367 28.4479 24.7971C28.4479 24.9576 28.203 25.2173 27.6653 25.4081C27.4916 25.4698 27.3748 25.6333 27.3728 25.8177C27.3709 26.002 27.4842 26.168 27.6566 26.2333C28.1683 26.4271 28.5002 26.6638 28.5912 26.8997C28.622 26.9797 28.6494 27.113 28.5307 27.3452Z" fill="#3BB77E"/>
<path d="M9.30207 12.1337C11.2533 11.8746 13.2317 11.8746 15.1827 12.1337C15.2024 12.1363 15.2219 12.1376 15.2412 12.1376C15.4581 12.1376 15.6469 11.977 15.6762 11.756C15.7082 11.5154 15.5391 11.2945 15.2985 11.2625C13.2708 10.9932 11.2143 10.9932 9.18634 11.2625C8.94574 11.2945 8.77658 11.5154 8.80857 11.756C8.84056 11.9966 9.06147 12.1656 9.30207 12.1337Z" fill="#3BB77E"/>
<path d="M15.6762 15.5269C15.6443 15.2863 15.4232 15.1173 15.1827 15.1491C13.2317 15.4083 11.2533 15.4083 9.30207 15.1491C9.06158 15.1172 8.84052 15.2863 8.80857 15.5269C8.77658 15.7675 8.94574 15.9884 9.18634 16.0204C10.2003 16.155 11.2213 16.2224 12.2424 16.2224C13.2635 16.2224 14.2845 16.155 15.2984 16.0204C15.5391 15.9884 15.7082 15.7675 15.6762 15.5269Z" fill="#3BB77E"/>
<path d="M16.8658 13.6414C16.8658 13.3987 16.669 13.2019 16.4263 13.2019H8.05665C7.81391 13.2019 7.61719 13.3987 7.61719 13.6414C7.61719 13.8841 7.81391 14.0808 8.05665 14.0808H16.4263C16.669 14.0808 16.8658 13.8841 16.8658 13.6414Z" fill="#3BB77E"/>
</g>
</g>
</g>
<defs>
<clipPath id="clip0_6511_7471">
<rect width="30" height="30" fill="white" transform="translate(0.941406 0.0500488)"/>
</clipPath>
<clipPath id="clip1_6511_7471">
<rect width="30" height="30" fill="white" transform="translate(0.941406 0.0500488)"/>
</clipPath>
<clipPath id="clip2_6511_7471">
<rect width="30" height="30" fill="white" transform="translate(0.941406 0.0500488)"/>
</clipPath>
</defs>
</svg>
