<svg width="31" height="30" viewBox="0 0 31 30" fill="none" xmlns="http://www.w3.org/2000/svg">
<rect x="0.96875" width="30" height="30" rx="15" fill="#3BB77E"/>
<g clip-path="url(#clip0_6511_2029)">
<g clip-path="url(#clip1_6511_2029)">
<path fill-rule="evenodd" clip-rule="evenodd" d="M14.4317 15.0518V20.7809C14.4317 20.8583 14.4962 20.9357 14.5865 20.9357H16.7155C16.7929 20.9357 16.8704 20.8712 16.8704 20.7809V14.9486H18.4058C18.4833 14.9486 18.5478 14.8841 18.5607 14.8067L18.6897 13.0647C18.7026 12.9744 18.6252 12.897 18.5349 12.897H16.8575V11.6583C16.8575 11.3615 17.0897 11.1292 17.3865 11.1292H18.5736C18.651 11.1292 18.7284 11.0647 18.7284 10.9744V9.23248C18.7284 9.15506 18.6639 9.07764 18.5736 9.07764H16.5607C15.3865 9.07764 14.4317 10.0325 14.4317 11.2067V12.897H13.3736C13.2962 12.897 13.2188 12.9615 13.2188 13.0518V14.8067C13.2188 14.8841 13.2833 14.9615 13.3736 14.9615H14.4317V15.0518Z" fill="white"/>
</g>
</g>
<defs>
<clipPath id="clip0_6511_2029">
<rect width="16" height="30" fill="white" transform="translate(7.96875)"/>
</clipPath>
<clipPath id="clip1_6511_2029">
<rect width="16" height="30" fill="white" transform="translate(7.96875)"/>
</clipPath>
</defs>
</svg>
