<svg width="31" height="30" viewBox="0 0 31 30" fill="none" xmlns="http://www.w3.org/2000/svg">
<rect x="0.96875" width="30" height="30" rx="15" fill="#3BB77E"/>
<g clip-path="url(#clip0_6511_2045)">
<g clip-path="url(#clip1_6511_2045)">
<path d="M16.716 17.8131C16.0063 17.7615 15.7095 17.4131 15.1547 17.0776C14.9095 18.3679 14.6127 19.6195 13.9289 20.4711C13.7224 20.7163 13.3224 20.6002 13.3095 20.2776C13.2063 18.2131 13.916 16.5744 14.2644 14.8582C13.6063 13.7357 14.3418 11.4905 15.7482 12.0453C17.4773 12.7292 14.2515 16.2002 16.4192 16.6389C18.6773 17.0776 19.6063 12.7163 18.1998 11.297C16.174 9.24534 12.316 11.2453 12.7934 14.1873C12.8837 14.7421 13.3482 15.0002 13.2966 15.555C13.2579 15.9034 12.9095 16.097 12.5998 15.955C11.7095 15.5421 11.4257 14.626 11.4644 13.4518C11.5418 11.2324 13.4644 9.67114 15.3869 9.45179C17.8257 9.18082 20.1095 10.3421 20.4192 12.6389C20.7805 15.2066 19.3224 18.0066 16.716 17.8131Z" fill="white"/>
</g>
</g>
<defs>
<clipPath id="clip0_6511_2045">
<rect width="16" height="30" fill="white" transform="translate(7.96875)"/>
</clipPath>
<clipPath id="clip1_6511_2045">
<rect width="16" height="30" fill="white" transform="translate(7.96875)"/>
</clipPath>
</defs>
</svg>
