<svg width="17" height="17" viewBox="0 0 17 17" fill="none" xmlns="http://www.w3.org/2000/svg">
<g clip-path="url(#clip0_6511_1173)">
<path d="M7.86 8.05667H0.5V2.72333C0.5 2.19 0.695556 1.72778 1.08667 1.33667C1.47778 0.945555 1.95778 0.75 2.52667 0.75H7.86V8.05667ZM1.83333 6.72333H6.52667V2.08333H2.52667C2.31333 2.08333 2.14444 2.14556 2.02 2.27C1.89556 2.39444 1.83333 2.54556 1.83333 2.72333V6.72333ZM16.5 8.05667H9.19333V0.75H14.5267C15.06 0.75 15.5222 0.945555 15.9133 1.33667C16.3044 1.72778 16.5 2.20778 16.5 2.77667V8.05667ZM10.5267 6.72333H15.1667V2.72333C15.1667 2.54556 15.1044 2.39444 14.98 2.27C14.8556 2.14556 14.7044 2.08333 14.5267 2.08333H10.5267V6.72333ZM7.86 16.75H2.52667C1.95778 16.75 1.47778 16.5544 1.08667 16.1633C0.695556 15.7722 0.5 15.31 0.5 14.7767V9.39H7.86V16.75ZM1.83333 10.7233V14.7233C1.83333 14.9367 1.89556 15.1056 2.02 15.23C2.14444 15.3544 2.31333 15.4167 2.52667 15.4167H6.52667V10.7233H1.83333ZM14.5267 16.75H9.19333V9.39H16.5V14.7233C16.5 15.2922 16.3044 15.7722 15.9133 16.1633C15.5222 16.5544 15.0422 16.75 14.4733 16.75H14.5267ZM10.5267 15.4167H14.5267C14.7044 15.4167 14.8556 15.3544 14.98 15.23C15.1044 15.1056 15.1667 14.9367 15.1667 14.7233V10.7233H10.5267V15.4167Z" fill="white"/>
</g>
<defs>
<clipPath id="clip0_6511_1173">
<rect width="16" height="16" fill="white" transform="matrix(1 0 0 -1 0.5 16.75)"/>
</clipPath>
</defs>
</svg>
