<svg width="31" height="30" viewBox="0 0 31 30" fill="none" xmlns="http://www.w3.org/2000/svg">
<rect x="0.96875" width="30" height="30" rx="15" fill="#3BB77E"/>
<g clip-path="url(#clip0_6511_2040)">
<g clip-path="url(#clip1_6511_2040)">
<path d="M19.2201 11.3354C18.8201 11.3354 18.4976 11.658 18.4976 12.058C18.4976 12.458 18.8201 12.7806 19.2201 12.7806C19.6201 12.7806 19.9427 12.458 19.9427 12.058C19.9427 11.658 19.6201 11.3354 19.2201 11.3354ZM15.9943 12.2645C14.3169 12.2645 12.9492 13.6322 12.9492 15.3096C12.9492 16.987 14.3169 18.3548 15.9943 18.3548C17.6717 18.3548 19.0395 16.987 19.0395 15.3096C19.0395 13.6322 17.6717 12.2645 15.9943 12.2645ZM15.9943 17.2709C14.9105 17.2709 14.0459 16.3935 14.0459 15.3225C14.0459 14.2386 14.9234 13.3741 15.9943 13.3741C17.0782 13.3741 17.9427 14.2515 17.9427 15.3225C17.9427 16.3935 17.0653 17.2709 15.9943 17.2709ZM22.1492 12.7806C22.1492 10.729 20.4847 9.06445 18.433 9.06445H13.5169C11.4653 9.06445 9.80078 10.729 9.80078 12.7806V17.6967C9.80078 19.7483 11.4653 21.4128 13.5169 21.4128H18.4201C20.4717 21.4128 22.1363 19.7483 22.1363 17.6967V12.7806H22.1492ZM20.975 17.6838C20.975 19.0903 19.8266 20.2386 18.4201 20.2386H13.5169C12.1105 20.2386 10.9621 19.0903 10.9621 17.6838V12.7806C10.9621 11.3612 12.0976 10.2257 13.5169 10.2257H18.4201C19.8266 10.2257 20.975 11.3741 20.975 12.7806V17.6838Z" fill="white"/>
</g>
</g>
<defs>
<clipPath id="clip0_6511_2040">
<rect width="16" height="30" fill="white" transform="translate(7.96875)"/>
</clipPath>
<clipPath id="clip1_6511_2040">
<rect width="16" height="30" fill="white" transform="translate(7.96875)"/>
</clipPath>
</defs>
</svg>
