<svg width="60" height="67" viewBox="0 0 60 67" fill="none" xmlns="http://www.w3.org/2000/svg">
<g clip-path="url(#clip0_8336_990)">
<g clip-path="url(#clip1_8336_990)">
<mask id="mask0_8336_990" style="mask-type:luminance" maskUnits="userSpaceOnUse" x="0" y="0" width="60" height="60">
<path d="M59.4671 0H0.162109V59.305H59.4671V0Z" fill="white"/>
</mask>
<g mask="url(#mask0_8336_990)">
<path d="M38.1426 28.2857L41.1426 23.5714L45.4283 21.4286C45.9997 21.2857 47.2283 21.0857 47.5711 21.4286C47.914 21.7714 52.8569 28.4286 55.2854 31.7143L57.4283 35.5714C56.9997 36.4286 56.0569 38.2286 55.714 38.5714C55.3711 38.9143 52.1425 40.4286 50.5711 41.1429C49.714 41.2857 47.914 41.5714 47.5711 41.5714C47.2283 41.5714 43.1425 36.1429 41.1426 33.4286L38.8926 29.5714L38.1426 28.2857Z" fill="#FDC040"/>
<path d="M47.5723 41.5715C47.2294 41.5715 43.1437 36.143 41.1437 33.4287L38.8937 29.5715H37.2866H33.0008C32.5723 29.5715 30.4294 30.4287 29.5723 30.8572L27.0008 32.143C26.1437 32.5715 25.2866 33.4287 24.858 33.8572C24.4294 34.2858 23.5723 35.5715 23.5723 36.0001C23.5723 36.4287 23.5723 37.2858 24.0008 37.7144C24.4294 38.143 25.2866 38.5715 25.7151 38.5715H28.2866C28.9723 38.5715 30.858 37.7144 31.7151 37.2858C32.0008 37.4287 32.658 37.8001 33.0008 38.143C33.3437 38.4858 36.2865 40.5715 37.7151 41.5715L41.1437 45.0001C41.7152 45.2858 42.9437 45.7715 43.2866 45.4287C43.6294 45.0858 44.858 44.143 45.4294 43.7144L46.7151 42.8572L47.5723 41.5715Z" fill="#FDC040"/>
<path d="M13.2852 46.2856C13.2852 46.9714 14.428 48.2856 14.9994 48.8571L17.9994 51.4285L19.7137 52.7142L21.428 54.4285C21.9995 54.7142 23.1423 55.3714 23.1423 55.7142C23.1423 56.0571 24.8566 56.4285 25.7137 56.5714C26.1423 56.2857 27.0852 55.6285 27.428 55.2856C27.8566 54.8571 27.8566 54.8571 27.8566 53.9999C27.8566 53.1428 27.8566 52.2856 27.428 51.4285C26.9994 50.5714 26.9994 48.8571 26.5709 48.4285C26.1423 47.9999 24.428 47.1428 24.428 46.7142C24.428 46.2856 23.1423 44.5714 22.7137 44.1428C22.2852 43.7142 21.428 41.9999 20.9994 41.5714C20.5709 41.1428 19.2852 40.2856 18.428 40.7142C17.5709 41.1428 14.9994 43.2856 14.5709 43.7142C14.228 44.0571 13.5708 45.5714 13.2852 46.2856Z" fill="#FDC040"/>
<path d="M21.4294 4.28564C24.0008 7.85708 31.3723 14.8285 40.2866 14.1428L38.5723 19.2856L36.0008 21.4285L27.858 23.9999L21.4294 21.8571L17.5723 14.9999L18.0008 9.4285L20.1437 5.57136L21.4294 4.28564Z" fill="#FDC040"/>
<path d="M28.8569 15.4071C28.4044 15.4071 27.8496 15.3409 27.4697 14.9175C27.3376 14.7688 27.2219 14.6299 27.1097 14.5141C26.2047 13.5617 24.6458 14.8845 25.5904 16.1211L25.8183 16.4154C25.9669 16.6008 26.2345 16.8156 26.6175 17.0604C26.9908 17.2983 27.4069 17.4703 27.8693 17.5728V19.2065C27.8693 19.7686 28.3282 20.2316 28.8899 20.2316C29.4547 20.2316 29.9335 19.7686 29.9335 19.2065V17.5629C30.6734 17.3912 31.3075 17.0306 31.826 16.4851C32.3476 15.9393 32.6086 15.2152 32.6086 14.3124C32.6086 13.6974 32.4899 13.1849 32.252 12.7714C32.0142 12.3614 31.7235 12.0738 31.3767 11.9116C31.0267 11.7495 30.6469 11.6073 30.2274 11.4851C29.8113 11.3628 29.4315 11.2767 29.0814 11.2239C28.7347 11.1741 28.444 11.0683 28.2062 10.9131C27.9683 10.7541 27.8495 10.5492 27.8495 10.2945C27.8495 9.07774 29.633 9.22646 30.4189 9.88783C31.5782 10.8633 32.876 9.07775 31.5319 8.06918L31.3766 7.93018C31.2709 7.84771 31.086 7.74509 30.8185 7.61605C30.5542 7.48725 30.2569 7.39122 29.9334 7.32173V6.33311V5.90327C29.9334 5.34103 29.4742 4.87817 28.9095 4.87817C28.348 4.87817 27.8858 5.34092 27.8858 5.90327V7.30528C27.1326 7.45412 26.5084 7.8279 26.0759 8.37995C25.64 8.94223 25.4186 9.564 25.4186 10.2581C25.4186 10.956 25.5806 11.5281 25.9041 11.9811C26.2278 12.4339 26.6209 12.7515 27.0866 12.9367C27.5489 13.1219 28.0112 13.2708 28.4736 13.3797C28.9392 13.4924 29.3324 13.6145 29.6558 13.7568C29.9796 13.8957 30.1414 14.0908 30.1414 14.3454C30.1415 15.0531 29.7122 15.4071 28.8569 15.4071Z" fill="#3BB77E"/>
<path d="M58.2429 33.4574L48.7254 21.2665C48.0843 20.4432 47.1123 19.9709 46.0589 19.9709C45.3153 19.9709 44.6114 20.207 44.0207 20.6552L37.792 25.4033C37.079 25.9466 36.6235 26.7352 36.5094 27.6236C36.4923 27.756 36.4843 27.888 36.4829 28.0194C34.1083 27.8395 31.6557 28.0204 29.2739 29.5685L29.1671 29.6379L23.1418 28.7165C23.1541 28.5078 23.1475 28.2967 23.1199 28.0848C23.0051 27.1985 22.5504 26.4118 21.8388 25.8693L15.6085 21.1255C14.1488 20.0093 12.0383 20.2805 10.9033 21.7316L8.6344 24.6383C8.23732 25.1468 8.32789 25.8809 8.83642 26.2777C9.34497 26.6747 10.079 26.5841 10.476 26.0757L12.7441 23.17C13.0875 22.7309 13.7493 22.6445 14.1913 22.9827L20.423 27.7275C20.6341 27.8884 20.7691 28.1219 20.8032 28.3853C20.8373 28.6491 20.7661 28.9102 20.6035 29.119L11.0841 41.3118C10.7431 41.7498 10.0804 41.8354 9.63905 41.5007L3.41009 36.7522C3.19789 36.5905 3.06226 36.3561 3.02831 36.0924C2.99461 35.8298 3.06585 35.5705 3.22974 35.3611L4.84812 33.2879C5.24507 32.7793 5.15461 32.0453 4.646 31.6485C4.13751 31.2513 3.40349 31.342 3.00642 31.8505L1.38898 33.9226C0.837969 34.627 0.597274 35.5032 0.711251 36.39C0.825344 37.2783 1.28102 38.0669 1.99384 38.6101L8.2248 43.3603C8.8312 43.8203 9.54785 44.0428 10.2598 44.0427C10.6716 44.0427 11.0813 43.967 11.4676 43.8211L12.274 44.9255C11.8357 45.7251 11.7673 46.6856 12.1196 47.6125C12.6231 48.9379 13.8112 49.8365 15.0966 49.8792C15.1364 50.0681 15.1916 50.2567 15.2671 50.4436C15.7852 51.7273 16.9682 52.6011 18.2395 52.6586C18.2453 52.6919 18.2497 52.7254 18.2565 52.7588C18.4984 53.9342 19.4001 54.938 20.5537 55.3162C20.8475 55.4125 21.1438 55.462 21.4372 55.4707C21.5496 55.9439 21.7844 56.4011 22.1455 56.8023C22.7083 57.4279 23.53 57.8282 24.4314 57.828C25.086 57.828 25.7827 57.6156 26.4523 57.1261L27.775 58.3625C28.4487 58.9913 29.2969 59.3051 30.1369 59.3051C30.9889 59.3051 31.8324 58.9821 32.4765 58.3373C32.8606 57.9529 33.1582 57.4955 33.3507 57.014C33.6789 57.1138 33.9996 57.161 34.3072 57.161C35.1735 57.1609 35.938 56.7951 36.4857 56.2309C36.9339 55.7693 37.2547 55.1549 37.3966 54.4998C37.444 54.5022 37.4914 54.5042 37.539 54.5046C37.5507 54.5048 37.5621 54.5048 37.5738 54.5048C38.4952 54.5048 39.3792 54.1479 40.0035 53.5227C40.4409 53.0849 40.7418 52.5459 40.8854 51.9575C41.1083 52.0009 41.3321 52.0236 41.5554 52.0236C41.8365 52.0236 42.117 51.9887 42.3932 51.9179C43.5196 51.6293 44.3894 50.749 44.6631 49.6205C44.9157 48.5791 44.6555 47.4821 43.947 46.485C45.7814 45.0091 46.5235 44.2821 47.3615 42.9227C47.9339 43.3438 48.6307 43.5757 49.3672 43.5757C50.1129 43.5757 50.8182 43.3379 51.4045 42.8896L57.6373 38.144C58.3483 37.602 58.8031 36.8154 58.918 35.929C59.0329 35.0417 58.7935 34.1643 58.2429 33.4574ZM15.7076 47.3035C15.5287 47.4652 15.3552 47.5472 15.1918 47.5472C14.8563 47.5472 14.4662 47.2116 14.3034 46.783C14.1555 46.3937 14.2244 46.0684 14.5089 45.8158L14.5127 45.8125L14.5162 45.8094L18.4514 42.3116C18.7807 42.0196 19.1119 41.8652 19.4097 41.8652C19.8455 41.8652 20.1713 42.1961 20.2896 42.5038C20.4161 42.8323 20.34 43.1255 20.0647 43.3745L19.3788 43.9931L19.377 43.9947C19.3735 43.9976 19.3704 44.0006 19.3669 44.0036C19.3424 44.0259 19.3171 44.0488 19.292 44.0714L15.7076 47.3035ZM18.8885 50.0954C18.7111 50.2521 18.5421 50.328 18.3721 50.328C18.0175 50.328 17.6053 49.9949 17.4336 49.5691C17.2442 49.1003 17.4689 48.8838 17.5399 48.8152C17.5855 48.7715 17.6403 48.7189 17.6974 48.6578L17.6984 48.6569L17.7105 48.6462C17.9352 48.4455 19.9139 46.6577 20.8593 45.8034L20.9298 45.7399C21.2502 45.4587 21.5747 45.3101 21.8688 45.3101C22.3326 45.3101 22.6778 45.665 22.8024 45.9947C22.9262 46.3224 22.8519 46.6093 22.5825 46.8466L22.3402 47.0597C22.3384 47.0613 22.3366 47.0626 22.3349 47.0642L22.3332 47.0659L18.8885 50.0954ZM22.3701 52.6166C22.354 52.6311 22.3388 52.6463 22.3232 52.661L22.0491 52.9083C21.8055 53.1284 21.5616 53.1884 21.2813 53.0964C20.9269 52.9802 20.6175 52.6403 20.545 52.2881C20.4819 51.982 20.6045 51.6983 20.9156 51.424L21.3054 51.0834C21.3152 51.0749 21.3237 51.0654 21.3332 51.0566L23.8863 48.8113C24.4981 48.2705 25.1041 48.2163 25.5073 48.6671C25.5641 48.7307 26.045 49.3024 25.4579 49.8328L23.8899 51.2477C23.8731 51.2625 23.8561 51.2758 23.8394 51.2909C23.8335 51.2964 23.8286 51.3027 23.8228 51.308L22.388 52.6026C22.3823 52.6076 22.3758 52.6115 22.3701 52.6166ZM23.8824 55.2397C23.7593 55.1031 23.5218 54.7488 23.9113 54.3746L25.4755 52.9632C25.5939 52.862 25.708 52.7817 25.8148 52.7266C25.8196 52.724 25.8247 52.7214 25.8295 52.7189C26.46 52.3822 26.8016 52.7747 26.8915 52.903C27.007 53.0679 27.1478 53.3919 26.7937 53.71L25.7221 54.6732C25.718 54.6768 25.7141 54.6805 25.7101 54.6841L25.2455 55.1016C24.482 55.7869 24.0091 55.3808 23.8824 55.2397ZM42.3927 49.0698C42.3209 49.3657 42.1098 49.579 41.8134 49.655C41.322 49.7807 40.7 49.5079 40.1305 48.9236C40.0879 48.8764 40.0441 48.8298 39.9983 48.7848L35.5891 44.4263C35.1301 43.9729 34.3906 43.9771 33.9372 44.4359C33.4837 44.8947 33.4879 45.6343 33.9466 46.0877L38.3487 50.4391C38.3561 50.4469 38.3635 50.4545 38.3707 50.4624C38.5466 50.6432 38.6444 50.8848 38.6455 51.1464C38.6466 51.4227 38.5418 51.6803 38.3505 51.8718C38.1618 52.0609 37.8795 52.1688 37.5745 52.1688C37.5702 52.1688 37.566 52.1688 37.5617 52.1686C37.2916 52.1661 37.0451 52.0756 36.8716 51.9177C36.7985 51.8232 36.7189 51.7316 36.6314 51.6437L33.4081 48.4164C32.9521 47.9602 32.2125 47.9597 31.7561 48.4154C31.2997 48.8712 31.2992 49.6108 31.755 50.0672L34.8119 53.1279C34.8487 53.1818 34.8896 53.2337 34.9366 53.2824L35.0667 53.4165C35.2343 53.7356 35.1304 54.2732 34.8096 54.6038C34.3145 55.1136 33.6177 54.6642 33.1213 54.198L31.7409 52.8984C31.2712 52.4562 30.5318 52.4786 30.0897 52.9482C29.6475 53.418 29.6698 54.1573 30.1395 54.5995L31.194 55.5921C31.1966 55.5945 31.1987 55.5971 31.2013 55.5995C31.2253 55.622 31.2616 55.656 31.2634 55.7738C31.2679 56.0476 31.0872 56.4229 30.8239 56.6865C30.4395 57.0711 29.8005 57.0574 29.3697 56.6553L28.2138 55.5749L28.355 55.4478C29.5013 54.4185 29.6863 52.8211 28.8049 51.5629C28.5181 51.1535 28.1589 50.8354 27.756 50.6147C28.324 49.4945 28.1652 48.1343 27.2484 47.1096C26.7313 46.5314 26.0007 46.1365 25.1852 46.0491C25.1619 45.756 25.0978 45.4607 24.9878 45.1695C24.5911 44.1189 23.709 43.3456 22.6709 43.0778C22.7141 42.6124 22.6498 42.1319 22.4701 41.6645C21.9784 40.3873 20.7487 39.529 19.4098 39.529C18.5318 39.529 17.6645 39.8868 16.9005 40.5645L13.9182 43.2154L13.2626 42.3176L22.1545 30.9287L26.2198 31.5505L25.6048 31.9495C22.3105 34.0868 22.0694 36.5724 22.9423 38.1861C23.6409 39.4777 25.0351 40.216 26.5151 40.216C27.1243 40.2159 27.7484 40.0907 28.3441 39.8275C28.3599 39.8204 28.3755 39.8132 28.3909 39.8056L31.4706 38.2786L33.2484 39.8974C33.2502 39.8989 33.252 39.9001 33.2536 39.9017C33.2553 39.9032 33.2568 39.9048 33.2585 39.9065L41.4757 47.2145C42.1798 47.8405 42.5227 48.5341 42.3927 49.0698ZM42.2945 44.8164L34.8161 38.1654L32.4531 36.014C32.0973 35.6898 31.5789 35.6171 31.1479 35.8311L27.3782 37.7003C26.3541 38.1407 25.3467 37.7216 24.9969 37.0749C24.5162 36.1863 25.2362 34.9733 26.8761 33.9095L30.5462 31.5279C32.5362 30.2343 34.6237 30.1345 37.4792 30.4659L45.7477 41.0605C44.8752 42.6275 44.4118 43.1249 42.2945 44.8164ZM56.6011 35.6286C56.5671 35.8917 56.432 36.1252 56.2214 36.2857L49.9873 41.0323C49.7634 41.2037 49.5266 41.2396 49.3675 41.2396C49.0398 41.2395 48.7389 41.0952 48.543 40.8446L39.027 28.6517C38.8638 28.443 38.7926 28.1837 38.8264 27.9213C38.8603 27.6575 38.9958 27.4229 39.2082 27.2611L45.435 22.5144C45.6609 22.3432 45.8988 22.3072 46.0587 22.3072C46.3867 22.3072 46.6868 22.4509 46.883 22.7028L56.4006 34.8938C56.5641 35.104 56.6354 35.3648 56.6011 35.6286Z" fill="#3BB77E"/>
<path d="M22.9602 23.7293C24.7941 24.7189 26.8658 25.2419 28.9512 25.2419C35.9035 25.2419 41.5598 19.5794 41.5598 12.6192C41.5598 7.76155 38.7238 3.28193 34.3358 1.20706C32.6455 0.406101 30.8338 0 28.9512 0C22.0004 0 16.3457 5.66097 16.3457 12.6192C16.3457 17.2601 18.8795 21.5169 22.9602 23.7293ZM28.9512 2.33607C30.485 2.33607 31.9602 2.66653 33.3363 3.31842C36.9126 5.00943 39.2235 8.66031 39.2235 12.6192C39.2235 18.2913 34.6154 22.9059 28.9513 22.9059C27.2518 22.9059 25.5638 22.4796 24.0717 21.6746C20.7471 19.8719 18.6818 16.4021 18.6818 12.6192C18.6818 6.94911 23.2886 2.33607 28.9512 2.33607Z" fill="#3BB77E"/>
<path d="M6.01179 29.8743C6.22688 30.046 6.48415 30.1294 6.73966 30.1294C7.08276 30.1294 7.42272 29.9789 7.65333 29.6897L7.66654 29.6732C8.06894 29.169 7.98634 28.434 7.48214 28.0317C6.97793 27.6295 6.24287 27.7117 5.8406 28.2161L5.82739 28.2328C5.42499 28.7369 5.50758 29.4719 6.01179 29.8743Z" fill="#3BB77E"/>
</g>
</g>
</g>
<defs>
<clipPath id="clip0_8336_990">
<rect width="60" height="60" fill="white"/>
</clipPath>
<clipPath id="clip1_8336_990">
<rect width="60" height="60" fill="white"/>
</clipPath>
</defs>
</svg>
