<svg width="60" height="67" viewBox="0 0 60 67" fill="none" xmlns="http://www.w3.org/2000/svg">
<g clip-path="url(#clip0_8336_1026)">
<g clip-path="url(#clip1_8336_1026)">
<g clip-path="url(#clip2_8336_1026)">
<mask id="mask0_8336_1026" style="mask-type:luminance" maskUnits="userSpaceOnUse" x="0" y="0" width="60" height="60">
<path d="M59.7914 0H0.486328V59.305H59.7914V0Z" fill="white"/>
</mask>
<g mask="url(#mask0_8336_1026)">
<path d="M44.0158 55.9459C43.4152 55.9459 42.9214 56.4029 42.8631 56.9881H34.1466L32.7715 48.7076L34.2999 47.1792C34.5171 46.962 34.6392 46.6673 34.6392 46.3602C34.6392 46.053 34.5171 45.7584 34.2999 45.5411L32.9475 44.1887H35.2585C37.7947 44.1887 40.1547 45.4475 41.5712 47.5561C41.928 48.0871 42.6477 48.2282 43.1786 47.8717C43.7096 47.5148 43.8508 46.7952 43.4941 46.2641C41.661 43.5356 38.6159 41.8989 35.3364 41.8732C36.4585 40.6306 37.1429 38.9856 37.1429 37.1835V35.4847C37.1429 31.6219 34.0004 28.4795 30.1377 28.4795C26.275 28.4795 23.1326 31.6219 23.1326 35.4847V37.1835C23.1326 38.9861 23.8172 40.6313 24.9396 41.8741C19.5079 41.916 15.1016 46.3461 15.1016 51.7876V58.1464C15.1016 58.7861 15.6201 59.3048 16.2599 59.3048H44.0156C44.6553 59.3048 45.1739 58.7861 45.1739 58.1464V57.1042C45.1741 56.4646 44.6555 55.9459 44.0158 55.9459ZM30.1513 48.0518L28.4596 46.3602L30.1513 44.6686L31.843 46.3602L30.1513 48.0518ZM29.5517 50.6796C29.7356 50.791 29.9432 50.8481 30.1512 50.8481C30.3592 50.8481 30.5669 50.7911 30.7506 50.6796L31.7983 56.9881H28.504L29.5517 50.6796ZM25.4494 35.4847C25.4494 32.8994 27.5526 30.7961 30.138 30.7961C32.7233 30.7961 34.8266 32.8993 34.8266 35.4847V37.1835C34.8266 39.7688 32.7233 41.8721 30.138 41.8721C27.5526 41.8721 25.4494 39.7688 25.4494 37.1835V35.4847ZM17.4184 51.7876C17.4184 47.5975 20.8273 44.1887 25.0173 44.1887H27.3548L26.0024 45.5411C25.7852 45.7584 25.6631 46.053 25.6631 46.3602C25.6631 46.6673 25.7852 46.962 26.0024 47.1792L27.5308 48.7076L26.1557 56.9881H17.4183L17.4184 51.7876Z" fill="#3BB77E"/>
<path d="M24 1.28564C24.3429 1.28564 32.1429 1.57136 36 1.71422V14.1428L24 13.7142V1.28564Z" fill="#FDC040"/>
<path d="M51.4277 1.71411L45.4277 12.857H58.2849L52.2849 2.14268L51.4277 1.71411Z" fill="#FDC040"/>
<path d="M24 1.28564C24.3429 1.28564 32.1429 1.57136 36 1.71422V14.1428L24 13.7142V1.28564Z" stroke="black" stroke-width="0.857143" stroke-linecap="round" stroke-linejoin="round"/>
<path d="M51.4277 1.71411L45.4277 12.857H58.2849L52.2849 2.14268L51.4277 1.71411Z" stroke="black" stroke-width="0.857143" stroke-linecap="round" stroke-linejoin="round"/>
<path d="M15.2993 7.40739C15.2993 3.32344 11.9766 0.000976562 7.89285 0.000976562C3.80903 0.000976562 0.486328 3.32356 0.486328 7.40739C0.486328 11.4912 3.80892 14.8138 7.89274 14.8138C11.9766 14.8138 15.2993 11.4913 15.2993 7.40739ZM2.80293 7.40739C2.80293 4.60094 5.08617 2.31758 7.89274 2.31758C10.6993 2.31758 12.9825 4.60094 12.9825 7.40739C12.9825 10.2138 10.6993 12.4972 7.89274 12.4972C5.08617 12.4972 2.80293 10.214 2.80293 7.40739Z" fill="#3BB77E"/>
<path d="M23.8907 14.813H36.3871C37.0267 14.813 37.5453 14.2942 37.5453 13.6546V1.1583C37.5453 0.518687 37.0267 0 36.3871 0H23.8907C23.251 0 22.7324 0.518687 22.7324 1.1583V13.6546C22.7324 14.2942 23.251 14.813 23.8907 14.813ZM25.049 2.31661H35.2287V12.4964H25.049V2.31661Z" fill="#3BB77E"/>
<path d="M59.6359 12.6151L52.9523 1.03911C52.7455 0.680734 52.3631 0.459961 51.9493 0.459961C51.5354 0.459961 51.153 0.680734 50.9462 1.03911L44.2626 12.6151C44.0557 12.9736 44.0557 13.4151 44.2626 13.7735C44.4695 14.1318 44.8519 14.3526 45.2657 14.3526H58.6328C59.0466 14.3526 59.429 14.1318 59.6359 13.7735C59.8428 13.4151 59.8428 12.9736 59.6359 12.6151ZM47.2719 12.036L51.9491 3.93487L56.6264 12.036H47.2719Z" fill="#3BB77E"/>
<path d="M30.1394 26.2057C30.7792 26.2057 31.2977 25.6869 31.2977 25.0473V21.7424L31.3446 21.8078C31.5708 22.1239 31.9264 22.2922 32.2876 22.2922C32.5209 22.2922 32.7565 22.2219 32.9608 22.0757C33.481 21.7034 33.6009 20.9799 33.2286 20.4597L31.0815 17.4594C30.8639 17.1554 30.5132 16.9751 30.1395 16.9751C29.7658 16.9751 29.4151 17.1554 29.1976 17.4594L27.0504 20.4597C26.6781 20.9799 26.7981 21.7034 27.3183 22.0757C27.8385 22.448 28.5619 22.3282 28.9343 21.8079L28.9811 21.7424V25.0473C28.9811 25.6871 29.4997 26.2057 30.1394 26.2057Z" fill="#3BB77E"/>
<path d="M20.6019 35.5868C20.6019 34.9471 20.0833 34.4284 19.4436 34.4284H9.05744V21.7424L9.10441 21.8078C9.33061 22.1239 9.68615 22.2922 10.0474 22.2922C10.2806 22.2922 10.5162 22.2219 10.7206 22.0757C11.2408 21.7034 11.3606 20.9799 10.9883 20.4597L8.84118 17.4594C8.62364 17.1554 8.27294 16.9751 7.89928 16.9751C7.5256 16.9751 7.17487 17.1554 6.95734 17.4594L4.8102 20.4597C4.43792 20.9799 4.55781 21.7034 5.078 22.0757C5.59808 22.448 6.32167 22.3282 6.69406 21.8079L6.74086 21.7424V35.5868C6.74086 36.2264 7.25943 36.745 7.89916 36.745H19.4436C20.0832 36.745 20.6019 36.2264 20.6019 35.5868Z" fill="#3BB77E"/>
<path d="M53.3205 17.4594C53.1029 17.1554 52.7522 16.9751 52.3786 16.9751C52.0049 16.9751 51.6542 17.1554 51.4366 17.4594L49.2895 20.4597C48.9172 20.9799 49.0371 21.7034 49.5573 22.0757C50.0775 22.448 50.8011 22.3282 51.1733 21.8079L51.2202 21.7424V34.4285H40.8341C40.1944 34.4285 39.6758 34.9472 39.6758 35.5868C39.6758 36.2264 40.1944 36.7451 40.8341 36.7451H52.3786C53.0182 36.7451 53.5368 36.2264 53.5368 35.5868V21.7424L53.5838 21.8079C53.81 22.124 54.1656 22.2923 54.5267 22.2923C54.76 22.2923 54.9956 22.222 55.1999 22.0758C55.7201 21.7035 55.84 20.9801 55.4678 20.4599L53.3205 17.4594Z" fill="#3BB77E"/>
<path d="M44.0158 53.0505C44.6554 53.0505 45.174 52.5319 45.174 51.8922C45.174 51.2525 44.6554 50.7339 44.0158 50.7339C43.376 50.7339 42.8574 51.2525 42.8574 51.8922C42.8574 52.5319 43.376 53.0505 44.0158 53.0505Z" fill="#3BB77E"/>
</g>
</g>
</g>
</g>
<defs>
<clipPath id="clip0_8336_1026">
<rect width="60" height="60" fill="white"/>
</clipPath>
<clipPath id="clip1_8336_1026">
<rect width="60" height="60" fill="white"/>
</clipPath>
<clipPath id="clip2_8336_1026">
<rect width="60" height="60" fill="white"/>
</clipPath>
</defs>
</svg>
