<svg width="60" height="67" viewBox="0 0 60 67" fill="none" xmlns="http://www.w3.org/2000/svg">
<g clip-path="url(#clip0_8336_1050)">
<g clip-path="url(#clip1_8336_1050)">
<g clip-path="url(#clip2_8336_1050)">
<mask id="mask0_8336_1050" style="mask-type:luminance" maskUnits="userSpaceOnUse" x="0" y="0" width="60" height="60">
<path d="M59.8377 0H0.648438V59.1892H59.8377V0Z" fill="white"/>
</mask>
<g mask="url(#mask0_8336_1050)">
<path d="M12.4277 14.1428V30C15.4277 28.9999 22.7992 28.8 28.2849 36C29.5706 38.7143 31.6277 45 29.5706 48.4285L35.5706 51.8571V26.1428L12.4277 14.1428Z" fill="#FDC040"/>
<path d="M59.2379 12.8015L36.1857 0.143318C35.8394 -0.046796 35.4194 -0.046796 35.0731 0.143318L26.3843 4.91424C26.201 4.96256 26.0298 5.05468 25.888 5.18699L12.0213 12.8015C11.6516 13.0042 11.4217 13.3926 11.4217 13.8148V29.1243C9.08253 29.8558 6.93886 31.1459 5.15648 32.9288C0.510651 37.5741 -0.673837 44.6594 2.20903 50.5593C2.48901 51.1328 3.18128 51.3708 3.75479 51.0903C4.32874 50.8099 4.56627 50.1177 4.28629 49.5441C1.83694 44.5311 2.8435 38.5112 6.7912 34.5635C9.25996 32.0947 12.542 30.735 16.0332 30.735C19.5243 30.735 22.8064 32.0947 25.2752 34.5635C27.7435 37.0318 29.1032 40.3139 29.1032 43.8051C29.1032 47.2962 27.7435 50.5783 25.2747 53.047C21.3271 56.9947 15.307 58.0013 10.2941 55.5519C9.72059 55.2715 9.02827 55.5095 8.74833 56.0829C8.46791 56.657 8.70547 57.3492 9.27942 57.6291C11.4284 58.6796 13.7342 59.1898 16.0232 59.1898C20.0166 59.1894 23.9566 57.6351 26.9099 54.6818C28.2642 53.3275 29.3344 51.765 30.0917 50.0666L35.0731 52.8018C35.2465 52.8971 35.438 52.9445 35.6294 52.9445C35.8208 52.9445 36.0128 52.8971 36.1857 52.8018L59.2379 40.1441C59.6078 39.9409 59.8376 39.5525 59.8376 39.1307V31.0967C59.8376 30.4582 59.3201 29.9407 58.6815 29.9407C58.043 29.9407 57.5255 30.4582 57.5255 31.0967V38.4466L36.7891 49.8332V27.1549L43.6328 23.3968V29.3541C43.6328 29.7633 43.8486 30.1416 44.2004 30.3494C44.3819 30.4564 44.5851 30.5101 44.7888 30.5101C44.9803 30.5101 45.1722 30.4627 45.346 30.3669L50.2858 27.648C50.6552 27.4448 50.8842 27.0569 50.8842 26.6356V19.4149L57.5255 15.7683V21.8488C57.5255 22.4874 58.043 23.0049 58.6815 23.0049C59.3201 23.0049 59.8376 22.4874 59.8376 21.8488V13.8148C59.8376 13.393 59.6078 13.0042 59.2379 12.8015ZM35.6294 2.47527L56.2796 13.8148L49.7656 17.3918L29.1154 6.05222L35.6294 2.47527ZM35.6294 25.154L14.9792 13.8148L21.7321 10.1065L42.3828 21.4456L35.6294 25.154ZM44.7842 20.127L24.134 8.78786L26.7134 7.37127L47.3641 18.7104L44.7842 20.127ZM26.9099 32.9288C24.0044 30.0233 20.1416 28.4234 16.0332 28.4234C15.256 28.4234 14.4884 28.4807 13.7337 28.5932V15.7683L34.4774 27.159V49.8372L30.877 47.8602C31.2315 46.5551 31.4149 45.1941 31.4149 43.8051C31.4149 39.6966 29.8149 35.8338 26.9099 32.9288ZM48.5726 25.9523L45.9448 27.3987V22.1275L48.5726 20.6847V25.9523Z" fill="#3BB77E"/>
<path d="M58.6814 25.3103C58.3776 25.3103 58.079 25.4341 57.8641 25.649C57.6492 25.8639 57.5254 26.162 57.5254 26.4663C57.5254 26.7703 57.6492 27.0683 57.8641 27.2833C58.079 27.4987 58.3776 27.6219 58.6814 27.6219C58.9854 27.6219 59.2838 27.4987 59.4988 27.2833C59.7138 27.0683 59.8375 26.7703 59.8375 26.4663C59.8375 26.162 59.7138 25.8639 59.4988 25.649C59.2838 25.4341 58.9854 25.3103 58.6814 25.3103Z" fill="#3BB77E"/>
<path d="M12.1451 44.9604C12.4409 44.9604 12.7371 44.8475 12.9624 44.6222C13.414 44.1705 13.414 43.4385 12.9624 42.987L12.1618 42.1859H18.9941C20.6514 42.1859 21.9998 43.5343 21.9998 45.1916C21.9998 46.8488 20.6514 48.1973 18.9941 48.1973H14.9457C14.3072 48.1973 13.7897 48.7148 13.7897 49.3533C13.7897 49.9914 14.3072 50.5089 14.9457 50.5089H18.9941C21.9263 50.5089 24.3119 48.1237 24.3119 45.1916C24.3119 42.2594 21.9263 39.8743 18.9941 39.8743H12.1618L12.9624 39.0731C13.414 38.6216 13.414 37.8896 12.9624 37.438C12.5112 36.9868 11.7792 36.9868 11.3277 37.438L8.55319 40.2125C8.10206 40.664 8.10206 41.396 8.55319 41.8477L11.3277 44.6216C11.5535 44.8475 11.8493 44.9604 12.1451 44.9604Z" fill="#3BB77E"/>
<path d="M5.97512 55.0216C5.64637 55.0216 5.31988 54.8816 5.09183 54.6102L5.08958 54.6075C4.67864 54.1189 4.74186 53.39 5.23047 52.9791C5.71907 52.5677 6.44837 52.631 6.85931 53.1195C7.26979 53.6086 7.20793 54.3388 6.71931 54.7497C6.50211 54.9322 6.23794 55.0216 5.97512 55.0216Z" fill="#3BB77E"/>
</g>
</g>
</g>
</g>
<defs>
<clipPath id="clip0_8336_1050">
<rect width="60" height="60" fill="white"/>
</clipPath>
<clipPath id="clip1_8336_1050">
<rect width="60" height="60" fill="white"/>
</clipPath>
<clipPath id="clip2_8336_1050">
<rect width="60" height="60" fill="white"/>
</clipPath>
</defs>
</svg>
