<svg width="31" height="30" viewBox="0 0 31 30" fill="none" xmlns="http://www.w3.org/2000/svg">
<rect x="0.96875" width="30" height="30" rx="15" fill="#3BB77E"/>
<g clip-path="url(#clip0_6511_2034)">
<g clip-path="url(#clip1_6511_2034)">
<path d="M21.6836 11.7224C21.3223 11.8901 20.9094 11.9933 20.5223 12.0578C20.7159 12.032 20.9868 11.6836 21.103 11.5546C21.2707 11.3482 21.4126 11.103 21.4901 10.8449C21.503 10.8191 21.503 10.7933 21.4901 10.7804C21.4642 10.7675 21.4513 10.7804 21.4255 10.7804C20.9868 11.0127 20.5352 11.1933 20.0449 11.3095C20.0062 11.3224 19.9804 11.3095 19.9546 11.2836C19.9159 11.232 19.8771 11.1933 19.8384 11.1546C19.632 10.9869 19.4126 10.8449 19.1675 10.7417C18.8449 10.6127 18.4836 10.5482 18.1352 10.574C17.7997 10.5998 17.4642 10.6901 17.1675 10.8449C16.8707 10.9998 16.5997 11.2191 16.3804 11.4901C16.161 11.7611 15.9933 12.0836 15.9159 12.432C15.8384 12.7675 15.8384 13.0901 15.89 13.4256C15.903 13.4772 15.89 13.4901 15.8384 13.4772C13.9288 13.2062 12.3546 12.5353 11.0771 11.0772C11.0255 11.0127 10.9868 11.0127 10.9481 11.0772C10.3933 11.9159 10.6642 13.2578 11.361 13.9288C11.4513 14.0191 11.5546 14.1095 11.6578 14.1869C11.6191 14.1998 11.1546 14.1482 10.7417 13.9288C10.69 13.8901 10.6642 13.9159 10.6513 13.9804C10.6513 14.0707 10.6513 14.1482 10.6642 14.2514C10.7675 15.103 11.361 15.8901 12.161 16.1869C12.2513 16.2256 12.3675 16.2643 12.4707 16.2772C12.29 16.3159 12.0965 16.3417 11.5675 16.303C11.503 16.2901 11.4771 16.3288 11.503 16.3804C11.89 17.4643 12.7417 17.7869 13.3868 17.9675C13.4771 17.9804 13.5546 17.9804 13.6449 18.0062C13.6449 18.0191 13.632 18.0191 13.632 18.0191C13.4255 18.3417 12.69 18.5869 12.3417 18.703C11.7223 18.9224 11.0384 19.0127 10.3804 18.9482C10.2771 18.9353 10.2513 18.9353 10.2255 18.9482C10.1997 18.9611 10.2255 18.9869 10.2513 19.0127C10.3804 19.103 10.5223 19.1804 10.6642 19.2578C11.0771 19.4772 11.5159 19.6578 11.9675 19.7869C14.3159 20.432 16.9739 19.9546 18.7417 18.1998C20.1223 16.832 20.6126 14.9353 20.6126 13.0256C20.6126 12.9482 20.703 12.9095 20.7546 12.8707C21.1159 12.5998 21.3997 12.2772 21.6707 11.9159C21.7352 11.8385 21.7223 11.7611 21.7223 11.7353V11.7224C21.7223 11.6965 21.7352 11.6965 21.6836 11.7224Z" fill="white"/>
<path fill-rule="evenodd" clip-rule="evenodd" d="M13.6319 20.0324C13.6706 20.0324 14.5997 20.0324 13.6319 20.0324C13.619 20.0324 13.761 20.0324 13.6319 20.0324ZM13.6319 20.0324C13.4384 20.0324 13.619 20.0324 13.6319 20.0324V20.0324ZM14.019 20.0453C14.019 20.0195 14.2255 20.0453 14.019 20.0453C14.019 20.0324 14.0448 20.0453 14.019 20.0453ZM18.0964 10.6001C18.0835 10.613 18.0706 10.613 18.0448 10.6001C18.0577 10.6001 18.0835 10.6001 18.0964 10.6001Z" fill="white"/>
</g>
</g>
<defs>
<clipPath id="clip0_6511_2034">
<rect width="16" height="30" fill="white" transform="translate(7.96875)"/>
</clipPath>
<clipPath id="clip1_6511_2034">
<rect width="16" height="30" fill="white" transform="translate(7.96875)"/>
</clipPath>
</defs>
</svg>
