<svg width="19" height="17" viewBox="0 0 19 17" fill="none" xmlns="http://www.w3.org/2000/svg">
<path d="M15.3192 9.21004L14.2392 10.29L15.9792 11.97H15.6792C14.4792 11.97 13.3992 11.73 12.4392 11.25C11.6792 10.85 10.8992 10.23 10.0992 9.39004L9.07922 10.53C9.91922 11.45 10.9092 12.18 12.0492 12.72C13.1892 13.26 14.3992 13.53 15.6792 13.53H15.9792L14.2392 15.21L15.3192 16.29L17.7792 13.83C18.0592 13.51 18.1992 13.15 18.1992 12.75C18.1992 12.35 18.0592 11.99 17.7792 11.67L15.3192 9.21004ZM15.6792 4.47004H15.9792L14.2392 6.21004L15.3192 7.29004L17.7792 4.83004C18.0592 4.51004 18.1992 4.15004 18.1992 3.75004C18.1992 3.35004 18.0592 2.99004 17.7792 2.67004L15.3192 0.210039L14.2392 1.29004L15.9792 2.97004H15.6792C14.5192 2.97004 13.4392 3.17004 12.4392 3.57004C11.5992 3.93004 10.7992 4.45004 10.0392 5.13004C9.47922 5.61004 8.81922 6.27004 8.05922 7.11004C6.93922 5.83004 5.87922 4.89004 4.87922 4.29004C3.47922 3.45004 1.91922 3.03004 0.199219 3.03004V4.47004C1.67922 4.47004 3.01922 4.85004 4.21922 5.61004C5.05922 6.13004 6.01922 7.01004 7.09922 8.25004C6.01922 9.49004 5.05922 10.37 4.21922 10.89C3.01922 11.61 1.67922 11.99 0.199219 12.03V13.47C1.51922 13.47 2.73922 13.23 3.85922 12.75C4.81922 12.35 5.73922 11.75 6.61922 10.95C7.13922 10.47 7.83922 9.71004 8.71922 8.67004C9.51922 7.71004 10.1392 7.03004 10.5792 6.63004C11.2992 5.95004 12.0392 5.45004 12.7992 5.13004C13.6792 4.73004 14.6392 4.53004 15.6792 4.53004V4.47004Z" fill="#333333"/>
</svg>
